<svg xmlns="http://www.w3.org/2000/svg" xmlns:xlink="http://www.w3.org/1999/xlink" width="520.143" height="460.51" viewBox="0 0 520.143 460.51">
  <defs>
    <clipPath id="clip-path">
      <path id="Вычитание_2" data-name="Вычитание 2" d="M471.524,411.515H48.619A258.878,258.878,0,0,1,0,260.071a262,262,0,0,1,5.284-52.413,258.646,258.646,0,0,1,39.132-92.995A260.83,260.83,0,0,1,158.84,20.438,258.768,258.768,0,0,1,207.658,5.284a262.61,262.61,0,0,1,104.827,0,258.648,258.648,0,0,1,93,39.132A260.829,260.829,0,0,1,499.7,158.84a258.756,258.756,0,0,1,15.154,48.818,261.936,261.936,0,0,1-7.549,133.329,258.927,258.927,0,0,1-35.786,70.529Z" fill="#eaeef9"/>
    </clipPath>
    <linearGradient id="linear-gradient" x1="0.996" y1="-1283.5" x2="0" y2="-1283.5" gradientUnits="objectBoundingBox">
      <stop offset="0" stop-color="#ff66a9"/>
      <stop offset="1" stop-color="#f53689"/>
    </linearGradient>
    <linearGradient id="linear-gradient-2" x1="0.997" y1="-1283.5" x2="-0.011" y2="-1283.5" gradientUnits="objectBoundingBox">
      <stop offset="0" stop-color="#83a6ff"/>
      <stop offset="1" stop-color="#5a78ff"/>
    </linearGradient>
    <linearGradient id="linear-gradient-3" x1="0.5" y1="-64.153" x2="0.5" y2="-65.066" gradientUnits="objectBoundingBox">
      <stop offset="0.003" stop-color="#606673" stop-opacity="0"/>
      <stop offset="1" stop-color="#373c47"/>
    </linearGradient>
    <linearGradient id="linear-gradient-4" x1="0.015" y1="991.654" x2="1.008" y2="991.654" xlink:href="#linear-gradient-2"/>
    <linearGradient id="linear-gradient-5" x1="0.234" y1="49.868" x2="0.79" y2="49.392" gradientUnits="objectBoundingBox">
      <stop offset="0" stop-color="#b12069"/>
      <stop offset="0.142" stop-color="#b21f69" stop-opacity="0.976"/>
      <stop offset="0.293" stop-color="#b51f6a" stop-opacity="0.906"/>
      <stop offset="0.448" stop-color="#bb1f6c" stop-opacity="0.784"/>
      <stop offset="0.605" stop-color="#c31f6f" stop-opacity="0.616"/>
      <stop offset="0.765" stop-color="#cd1f72" stop-opacity="0.4"/>
      <stop offset="0.924" stop-color="#d91f76" stop-opacity="0.141"/>
      <stop offset="1" stop-color="#e01f79" stop-opacity="0"/>
    </linearGradient>
    <linearGradient id="linear-gradient-6" x1="0.234" y1="87.679" x2="0.79" y2="87.204" xlink:href="#linear-gradient-5"/>
  </defs>
  <g id="Сгруппировать_2131" data-name="Сгруппировать 2131" transform="translate(-1131.676 -2444.83)">
    <g id="Сгруппировать_2109" data-name="Сгруппировать 2109" transform="translate(1131.676 2444.83)">
      <path id="Вычитание_3" data-name="Вычитание 3" d="M471.524,411.515H48.619A258.878,258.878,0,0,1,0,260.071a262,262,0,0,1,5.284-52.413,258.646,258.646,0,0,1,39.132-92.995A260.83,260.83,0,0,1,158.84,20.438,258.768,258.768,0,0,1,207.658,5.284a262.61,262.61,0,0,1,104.827,0,258.648,258.648,0,0,1,93,39.132A260.829,260.829,0,0,1,499.7,158.84a258.756,258.756,0,0,1,15.154,48.818,261.936,261.936,0,0,1-7.549,133.329,258.927,258.927,0,0,1-35.786,70.529Z" fill="#eaeef9"/>
      <g id="Группа_масок_23" data-name="Группа масок 23" clip-path="url(#clip-path)">
        <path id="Контур_1456" data-name="Контур 1456" d="M1004.3,519.255q0,115.492,0,230.983c0,5.273,0,5.273-5.273,5.273q-231.365,0-462.731.08c-3.622,0-4.6-.993-4.594-4.6q.128-231.735,0-463.471c0-3.614.987-4.6,4.6-4.6q231.74.131,463.483,0c3.614,0,4.6.983,4.6,4.6Q1004.227,403.388,1004.3,519.255ZM798.927,743.424l50.424.058h56.673a65.872,65.872,0,0,0-7.9-5.428c-16.452-10.648-32.8-21.454-49.191-32.2q-23.44-15.38-46.888-30.747-25.986-16.981-52.01-33.9c3.225-.714,3.539-4.311,6.8-4.666,2.5-.271,6.917,1.189,8.111-.791a131.221,131.221,0,0,1,14.5,9.262c2.2,1.69,3.494,1.561,4.993-.95,6.587-11.028,13.489-21.87,20-32.942,7.9-13.44,16.25-26.607,24.027-40.126,7.892-13.719,16.416-27.074,24.688-40.573,5.148-8.4,10.383-16.748,15.5-25.165,2.854-4.693,5.557-9.476,8.313-14.226.783-1.35,1.559-2.937-.172-3.971-5.229-3.121-10.143-6.786-15.791-9.183,1.677-6.339,5.252-6.955,9.938-9.231.439,1.113,3.732,1.856,4.713,2.46,16.051,9.872,32.135,19.691,48.128,29.657,11.329,7.059,22.86,13.779,34.068,21.043,10.362,6.715,21.1,12.848,31.675,19.236.7.423,1.177,1.575,2.187,1.006.908-.512.533-1.583.533-2.414q.027-39.3.033-78.6a4.315,4.315,0,0,0-2.032-4.115c-3.279-2.06-6.453-4.283-9.744-6.319q-16.241-10.048-32.534-20.009c4.9-2.507,9.54-5.561,14.915-7.067,2.174,3.262,5.954,4.314,8.972,6.389,5.531,3.8,11.283,7.289,17.03,10.763,1.749,1.059,3.484,1.546,3.423-1.81-.179-10.127-.15-20.257-.2-30.387q.015-10.746.026-21.493c.043-8.9.028-17.8.171-26.7a4.281,4.281,0,0,0-2.484-4.185c-3.678-2.118-7.343-4.268-10.943-6.518-13.438-8.4-26.817-16.894-40.276-25.26-12.509-7.775-25.231-15.221-37.582-23.234a35.272,35.272,0,0,0-20.558-6.212c-36.862.391-73.731.173-110.6.174a26.951,26.951,0,0,0-3.008.038c-2.755.311-2.856,2.914-3.679,4.7-.748,1.621,1.123,1.925,2.1,2.535q11.621,7.227,23.269,14.413,22.591,14.019,45.18,28.047c13.8,8.525,27.669,16.949,41.469,25.476,11.687,7.22,23.3,14.565,34.991,21.778,7.439,4.589,15.111,8.815,22.381,13.652,3.136,2.087,28.166,17.133,33.6,20.6-4.709,2.361-9.381,8.74-15.414,5.7-3.28-1.709-29.007-17.273-32.121-19.215Q897.517,399.6,876.37,386.468q-20.853-12.924-41.752-25.774c-13.588-8.4-27.141-16.86-40.742-25.24-11.585-7.139-23.355-13.993-34.743-21.431-3.349-2.187-4.331-1.21-5.936,1.532-4.472,7.641-9.164,15.153-13.734,22.736-6.376,10.576-12.554,21.276-19.18,31.694-2.248,3.533-.814,4.721,1.975,6.413,12.057,7.312,24.008,14.8,36.017,22.192,9.88,6.08,19.8,12.1,29.685,18.169q10.527,6.457,21.022,12.968c9.315,5.8,18.635,11.593,27.886,17.5,5.232,3.339,36.681,22.757,44.086,27.721-3.954,1.848-12.946,1.992-15.483,4.99-1.6-.705-23.848-14.427-25.315-15.344q-13.328-8.334-26.768-16.49c-16.46-9.941-32.689-20.264-49.048-30.376-4.466-2.761-4.418-2.616-7.114,1.985q-7.2,12.282-14.63,24.433c-5.457,8.961-11.083,17.82-16.5,26.8-7.608,12.608-15,25.347-22.722,37.885-1.328,2.159-1.807,3.923-1.069,6.251,3.357,10.587,6.625,21.206,9.977,31.795q9.394,29.653,18.856,59.286c1.5,4.7,2.381,9.753,7.453,12.376,2.192,1.133,25.607,16.666,27.689,18-6.21,1.754-8.617,5.1-15.044,5.744-1.8-1.861-28.814-19.709-29.6-22.4-3.053-10.423-6.315-20.786-9.589-31.143-6.934-21.932-13.969-43.832-20.856-65.779-1.476-4.707-3.282-8.372-8.8-9.854-6.967-1.87-13.644-4.842-20.418-7.414-13.767-5.225-27.495-10.556-41.28-15.735-10.266-3.857-20.619-7.49-30.894-11.324q-21.065-7.863-42.061-15.906c-3.045-1.166-4.027-.378-3.954,2.853.172,7.644.1,15.293.12,22.94q-.008,14.968-.016,29.936-.01,13.964-.02,27.932.017,47.714.033,95.428l.079,20.578q-.022,9.628-.041,19.259c-.034,5.385-.036,10.77-.122,16.153-.034,2.118.452,2.805,2.854,2.274,8.88-1.965,17.829-3.619,26.742-5.433,12.333-2.507,24.655-5.071,36.987-7.581,15.377-3.129,30.762-6.209,46.132-9.367,2.509-.514,4.957-.916,7.261.521,12.184,7.6,24.384,15.176,36.515,22.863,12.217,7.739,24.348,15.615,36.538,23.4,7.46,4.763,14.847,9.658,22.5,14.1,3.251,1.888,5.922,5.018,10.288,4.941C779.385,743.347,789.157,743.439,798.927,743.424ZM543.9,353.631c-.028,3.634-.089,7.267-.077,10.9.02,6.3-.649,5.728,5.549,5.728q73.692.015,147.384,0c1.879,0,3.762-.064,5.638.017a4.073,4.073,0,0,0,3.951-2.3q10.988-18.305,22.051-36.569,10.178-16.779,20.453-33.5c1.148-1.874,1.189-2.923-1.5-2.891-6.643.085-13.285.033-19.927.036q-63.937,0-127.872-.013c-17.3,0-34.6.033-51.9-.035-2.463-.01-3.923.2-3.9,3.344C543.913,316.777,543.875,335.2,543.9,353.631Zm422.213,389.66c7.261.063,14.527-.03,21.779.255,3.368.133,4.481-.751,4.456-4.318-.166-23.917-.085-47.837-.1-71.756q-.028-41.324-.081-82.649c.03-7.647-.043-15.3.145-22.94.068-2.777-1.031-4.24-3.366-5.62-9.574-5.661-19.038-11.508-28.495-17.363-13.788-8.537-27.531-17.148-41.3-25.713-7.529-4.684-15.2-9.147-22.572-14.07-5.8-3.879-6.385-4.014-10,1.889q-18.3,29.87-36.559,59.771-10.926,17.918-21.732,35.91-16.461,27.26-32.911,54.529c-1.162,1.922-1.18,3.21.993,4.6,7.351,4.716,14.507,9.739,21.837,14.489,18.338,11.883,36.758,23.639,55.095,35.526q27.667,17.933,55.23,36.027a7.348,7.348,0,0,0,4.117,1.608Q949.38,743.367,966.116,743.291ZM626.8,383.073c-26.329,0-52.658.046-78.985-.062-3.081-.012-4.083.815-4.058,3.987.14,17.675.068,35.354.066,53.031,0,7.463.031,7.379,7.179,10.028q43.233,16.026,86.429,32.153,24.755,9.242,49.445,18.66c3.211,1.227,5.835,1.915,7.392-2.234a33.115,33.115,0,0,1,2.965-5.206q10.541-17.491,21.11-34.966c5.119-8.422,10.351-16.774,15.487-25.185,4.489-7.348,8.867-14.765,13.4-22.085,1.473-2.378.921-3.644-1.414-5.058-10.245-6.2-20.364-12.618-30.568-18.891-4.152-2.553-8.313-4.38-13.6-4.313C676.7,383.249,651.745,383.074,626.8,383.073Zm114.19,359.566c-2.47-1.61-4.627-3.055-6.82-4.441q-12.65-7.986-25.316-15.948-12.983-8.2-25.941-16.444c-7.065-4.466-14.164-8.879-21.206-13.379-1.511-.965-2.846-1.766-4.831-1.362-14.9,3.043-29.822,5.934-44.721,8.956-21.624,4.383-43.214,8.928-64.867,13.155-3.055.6-3.533,1.9-3.5,4.487.092,7.017.211,14.043-.076,21.051-.15,3.693.753,4.893,4.717,4.885q94.182-.222,188.365-.148C737.992,743.452,739.277,743.821,740.986,742.638ZM917.824,295.011l-.26.725c.667.5,1.3,1.054,2.006,1.491q19.881,12.329,39.779,24.632,14.931,9.256,29.845,18.542c.733.457,1.494,1.225,2.356.857,1.186-.508.684-1.758.687-2.68q.067-17.856.053-35.709c0-7.858,0-7.858-7.953-7.858Q951.081,295.009,917.824,295.011Z" transform="translate(-509.633 -271.099)" fill="#fdfdfd"/>
      </g>
    </g>
    <rect id="Прямоугольник_2582" data-name="Прямоугольник 2582" width="475.959" height="8.768" transform="translate(1623.204 2860.729) rotate(180)" fill="#3e3d51"/>
    <path id="Контур_2450" data-name="Контур 2450" d="M-694.594,1514.572l-.418-.754-1.112.7Z" transform="translate(2087.106 1318.285)" fill="#184655"/>
    <path id="Контур_2451" data-name="Контур 2451" d="M-705.364,1508.869l-.02-.615-1.469.139Z" transform="translate(2091.402 1320.512)" fill="#333343"/>
    <path id="Контур_2452" data-name="Контур 2452" d="M-714.691,1498.7l.414-.6-1.09-.318Z" transform="translate(2094.809 1324.7)" fill="#333343"/>
    <g id="Сгруппировать_2110" data-name="Сгруппировать 2110" transform="translate(1178.243 2762.396)">
      <path id="Контур_2424" data-name="Контур 2424" d="M316.076,357.552h.541a.676.676,0,0,0,0-1.352h-.541a.676.676,0,1,0,0,1.352Z" transform="translate(-208.989 -333.349)" fill="#2d5887"/>
      <path id="Контур_2425" data-name="Контур 2425" d="M316.076,359.752h.541a.676.676,0,0,0,0-1.352h-.541a.676.676,0,0,0,0,1.352Z" transform="translate(-208.989 -332.574)" fill="#2d5887"/>
      <path id="Контур_2426" data-name="Контур 2426" d="M316.076,361.952h.541a.676.676,0,0,0,0-1.352h-.541a.676.676,0,0,0,0,1.352Z" transform="translate(-208.989 -331.8)" fill="#2d5887"/>
      <path id="Контур_2427" data-name="Контур 2427" d="M316.076,364.252h.541a.676.676,0,1,0,0-1.352h-.541a.676.676,0,1,0,0,1.352Z" transform="translate(-208.989 -330.99)" fill="#2d5887"/>
      <path id="Контур_2428" data-name="Контур 2428" d="M330.876,357.452h10.141a.676.676,0,0,0,0-1.352H330.876a.676.676,0,0,0,0,1.352Z" transform="translate(-253.4 -333.384)" fill="#fff"/>
      <path id="Контур_2429" data-name="Контур 2429" d="M330.876,364.152h32.992a.676.676,0,0,0,0-1.352H330.876a.676.676,0,1,0,0,1.352Z" transform="translate(-276.251 -331.025)" fill="url(#linear-gradient)"/>
      <path id="Контур_2430" data-name="Контур 2430" d="M327.476,359.552h14.738a.676.676,0,1,0,0-1.352H327.476a.676.676,0,0,0,0,1.352Z" transform="translate(-250 -332.645)" fill="#2d5887"/>
      <path id="Контур_2431" data-name="Контур 2431" d="M327.576,361.852h26.231a.676.676,0,1,0,0-1.352H327.576a.639.639,0,0,0-.676.676C327.035,361.582,327.306,361.852,327.576,361.852Z" transform="translate(-261.728 -331.835)" fill="#2d5887"/>
      <path id="Контур_2432" data-name="Контур 2432" d="M348.576,361.852h9.194a.676.676,0,1,0,0-1.352h-9.194a.676.676,0,1,0,0,1.352Z" transform="translate(-294.086 -331.835)" fill="#fff"/>
      <path id="Контур_2433" data-name="Контур 2433" d="M357.076,361.852h3.651a.676.676,0,1,0,0-1.352h-3.651a.676.676,0,1,0,0,1.352Z" transform="translate(-308.535 -331.835)" fill="url(#linear-gradient-2)"/>
      <path id="Контур_2434" data-name="Контур 2434" d="M309.3,355.985v67.07h69.634c2.7,0,4.868-2.965,4.868-6.67V355.8H309.3Z" transform="translate(-267.249 -333.49)" fill="#cab4a0"/>
      <path id="Контур_2435" data-name="Контур 2435" d="M364.3,355.9v60.463c0,3.7,2.163,6.657,4.868,6.657H390.8V356.085H364.3Z" transform="translate(-348.615 -333.455)" fill="#90694e"/>
      <path id="Контур_2437" data-name="Контур 2437" d="M418.739,362.151l-14.6-22.851H329.5l15.008,22.851Z" transform="translate(-329.5 -339.3)" fill="#90694e"/>
      <path id="Контур_2439" data-name="Контур 2439" d="M364.5,355.935v26.5h19.2a3.239,3.239,0,0,0,3.245-2.975l3.786-23.662Z" transform="translate(-348.815 -333.49)" opacity="0.3" fill="url(#linear-gradient-3)" style="isolation: isolate"/>
      <path id="Контур_2440" data-name="Контур 2440" d="M377.445,355.9h26.5l-13.386,20.823a4.893,4.893,0,0,1-3.921,2.163H366.088a1.767,1.767,0,0,1-1.487-2.7Z" transform="translate(-361.761 -333.455)" fill="#cab4a0"/>
      <path id="Контур_2441" data-name="Контур 2441" d="M298.2,362.151,312.8,339.3h74.772l-15.144,22.851Z" transform="translate(-256.014 -339.3)" fill="#e5cbb3"/>
      <path id="Контур_2442" data-name="Контур 2442" d="M315.717,377.334h29.341a1.217,1.217,0,1,0,0-2.434H315.717a1.212,1.212,0,0,0-1.217,1.217C314.635,376.793,315.041,377.334,315.717,377.334Z" transform="translate(-236.754 -326.764)" fill="#dae1ed"/>
      <path id="Контур_2443" data-name="Контур 2443" d="M315.717,381.834h29.341a1.217,1.217,0,1,0,0-2.434H315.717a1.212,1.212,0,0,0-1.217,1.217C314.635,381.293,315.041,381.834,315.717,381.834Z" transform="translate(-236.754 -325.18)" fill="#dae1ed"/>
      <path id="Контур_2444" data-name="Контур 2444" d="M315.717,386.234h13.521a1.217,1.217,0,0,0,0-2.434H315.717a1.212,1.212,0,0,0-1.217,1.217A1.427,1.427,0,0,0,315.717,386.234Z" transform="translate(-220.934 -323.631)" fill="#dae1ed"/>
    </g>
    <g id="Сгруппировать_2111" data-name="Сгруппировать 2111" transform="translate(1276.612 2671.907)">
      <path id="Контур_1479" data-name="Контур 1479" d="M779.386,558.485l-27.1,65.6a11.054,11.054,0,0,0-.986,4.932l-.245,5.426H644.373a6.482,6.482,0,0,1-6.405-6.906l3.447-35.02A14.252,14.252,0,0,0,629.1,576.982l-19.709-2.466,4.927-32.063c4.927-32.06,19.465-33.048,29.073-37.731,4.68-2.221,10.1-4.44,14.783-6.414,2.463-.986,4.927-1.727,6.405-2.466a14.428,14.428,0,0,1,5.666-.986,118.009,118.009,0,0,1,18.231,2.711c5.423,1.235,12.073,2.466,18.478,3.7a31.581,31.581,0,0,1,4.683.986,70.742,70.742,0,0,1,30.8,14.306l32.52,26.142C780.125,545.906,781.85,552.565,779.386,558.485Z" transform="translate(-576.066 -410.028)" fill="#6c6bcc"/>
      <path id="Контур_1480" data-name="Контур 1480" d="M680.911,501.086v15.782c0,10.607-8.87,19.238-19.958,19.238a20.142,20.142,0,0,1-14.043-5.671A18.673,18.673,0,0,1,641,516.868V470.5Z" transform="translate(-554.213 -426.865)" fill="#f7a491"/>
      <path id="Контур_1481" data-name="Контур 1481" d="M676.059,491.5v15.29c-22.915-2.219-30.552-24.909-27.35-22.2C651.419,487.307,665.957,490.02,676.059,491.5Z" transform="translate(-549.36 -417.278)" fill="#f47458"/>
      <path id="Контур_1482" data-name="Контур 1482" d="M694.806,459.093c.248,24.417,3.45,48.585-2.216,53.025a27.9,27.9,0,0,1-30.8,1.235c-12.567-7.4-14.044-12.087-14.044-12.087l-6.9-6.9L641.836,466l19.958-14.306Z" transform="translate(-554.313 -439.87)" fill="#f7a491"/>
      <path id="Контур_1483" data-name="Контур 1483" d="M696.06,459.193s2.464,7.4-8.129,7.153-23.407-3.7-28.826-4.687c-5.421-1.233-8.87,4.932-8.87,4.932v9.372L649,490.516s-9.609-4.44-9.858-10.113a49.941,49.941,0,0,1,0-7.4l11.828-10.852s15.275-5.671,16.014-6.412c.739-.492,16.508-4.191,16.508-4.191s10.842.494,11.826,1.974a13.454,13.454,0,0,1,.986,3.7A11.106,11.106,0,0,0,696.06,459.193Z" transform="translate(-555.567 -439.97)" fill="#69360a"/>
      <path id="Контур_1484" data-name="Контур 1484" d="M645.328,484c3.79-.391,6.513-4.113,6.08-8.313s-3.853-7.29-7.644-6.9-6.513,4.113-6.08,8.313S641.537,484.395,645.328,484Z" transform="translate(-556.533 -428.071)" fill="#f7a491"/>
      <path id="Контур_1485" data-name="Контур 1485" d="M697.416,467.627c-.245,0-.245,0-.494.245-4.68-6.165-12.318-9.617-26.607-4.44h-.247a16.728,16.728,0,0,1-1.972.741,8.751,8.751,0,0,0-2.216.986,85.3,85.3,0,0,0-13.8,7.892c-6.158,4.193-11.579,9.619-11.824,14.057a87.794,87.794,0,0,1-2.464-17.756c-.249-11.1,13.549-22.69,27.348-24.415,7.39-.986,13.3,1.231,18.477,4.932,4.435,3.205,8.377,7.892,11.828,12.577Z" transform="translate(-556.429 -444.702)" fill="#ec008c"/>
      <path id="Контур_1486" data-name="Контур 1486" d="M708.082,453.472c-1.233,6.165-10.841,11.1-17,13.563-10.84-14.055-32.273-3.452-44.84,5.426.247-.245.494-1.725.739-1.972C654.617,451.745,711.531,435.222,708.082,453.472Z" transform="translate(-550.587 -444.115)" fill="#b12069"/>
      <path id="Контур_1487" data-name="Контур 1487" d="M720.874,515.052h-5.913c-.741,0-.986-.245-.986-.984s.245-.986.986-.986h5.913c.739,0,.984.247.984.986A.9.9,0,0,1,720.874,515.052Z" transform="translate(-503.757 -397.427)" fill="url(#linear-gradient-4)"/>
      <path id="Контур_1488" data-name="Контур 1488" d="M767.4,514.546v109.5a5.932,5.932,0,0,1-.986,3.7c-.245.248-.492.988-.984,1.234l-.494.494a7.238,7.238,0,0,1-5.419,2.217H726.5l-6.405-124.3h40.16A7,7,0,0,1,767.4,514.546Z" transform="translate(-499.527 -401.358)" fill="#90694e"/>
      <path id="Контур_1490" data-name="Контур 1490" d="M771.262,513.807V631.448H663.1a7.264,7.264,0,0,1-7.393-7.4v-109.5a7.211,7.211,0,0,1,7.393-7.151H764.608A6.581,6.581,0,0,1,771.262,513.807Z" transform="translate(-544.042 -401.358)" fill="#cab4a0"/>
      <path id="Контур_1491" data-name="Контур 1491" d="M705.8,507.395v32.8a2.2,2.2,0,0,1-1.231,1.974l-4.435,1.972a1.512,1.512,0,0,1-1.725-.245l-6.9-5.426a2.168,2.168,0,0,0-1.725-.247l-3.7,1.972a1.332,1.332,0,0,1-1.972-.986V507.395Z" transform="translate(-525.511 -401.443)" fill="#373980" opacity="0.39"/>
      <path id="Контур_1492" data-name="Контур 1492" d="M720.093,507.429a6.466,6.466,0,0,1,6.9,3.946,7.244,7.244,0,0,1,.492,2.219v21.951l-.247,32.06-.245,32.062-.494,32.06-.245-32.06-.247-32.062-.247-32.06V515.567c0-1.48.247-2.711-.245-3.7A7.192,7.192,0,0,0,720.093,507.429Z" transform="translate(-499.527 -401.393)" fill="#90694e" opacity="0.678"/>
      <path id="Контур_1494" data-name="Контур 1494" d="M628.032,574.434l4.435-44.147,4.68,47.354" transform="translate(-563.176 -385.531)" fill="#373980" opacity="0.753"/>
      <g id="Сгруппировать_1464" data-name="Сгруппировать 1464" transform="translate(34.259 164.24)">
        <path id="Контур_1495" data-name="Контур 1495" d="M739.091,579.293a3.254,3.254,0,0,1-2.71,3.452l-2.71.249s-9.363-1.48-9.857,5.177c-.494,5.426,2.219,7.4,9.609,16.525a3.535,3.535,0,0,1-2.464,5.671c-18.479,1.48-19.218,1.48-33.752-12.824a10.683,10.683,0,0,0-7.393-3.205l-37.7-.247-33.506-.494a14.956,14.956,0,0,1-8.625-14.8l1.972-36.992,30.8,3.946-1.725,17.017,52.48,10.605s13.3,2.713,23.9,2.219c7.884-.247,14.536.247,18.972.494A4.488,4.488,0,0,1,739.091,579.293Z" transform="translate(-609.941 -541.807)" fill="#f7a491"/>
      </g>
      <circle id="Эллипс_170" data-name="Эллипс 170" cx="8.793" cy="8.793" r="8.793" transform="translate(200.516 200.749)" fill="#ec008c" opacity="0.773"/>
      <circle id="Эллипс_171" data-name="Эллипс 171" cx="5.258" cy="5.258" r="5.258" transform="translate(0 164.24)" fill="#ec008c" opacity="0.773"/>
      <rect id="Прямоугольник_2577" data-name="Прямоугольник 2577" width="36.27" height="18.685" transform="translate(173.474 120.744) rotate(-9)" fill="#e5e5e5"/>
      <path id="Контур_2387" data-name="Контур 2387" d="M-13385.843-11108.613l6.6,79.028Z" transform="translate(13455.457 11254.188)" fill="#373a7c"/>
    </g>
    <g id="Сгруппировать_1466" data-name="Сгруппировать 1466" transform="translate(1337.017 2492.894)">
      <path id="Контур_1496" data-name="Контур 1496" d="M760.535,353.966a35.3,35.3,0,0,1-1.706,10.233c-2.17,7.131-6.047,14.726-10.079,22.012-4.5,8.062-9.3,15.968-12.251,22.635a3.043,3.043,0,0,1-2.945,1.86,3.292,3.292,0,0,1-2.948-1.86c-6.978-15.658-24.036-37.827-24.036-54.88a26.982,26.982,0,0,1,53.965,0Z" transform="translate(-706.57 -326.993)" fill="#ec008c"/>
      <path id="Контур_1497" data-name="Контур 1497" d="M754.469,359.508c-2.17,7.131-6.047,14.726-10.079,22.012l-23.106-23.1,10.08-9.611,6.668-6.046Z" transform="translate(-702.21 -322.32)" fill="url(#linear-gradient-5)"/>
      <path id="Контур_1498" data-name="Контур 1498" d="M730.009,362.6a11.472,11.472,0,1,0-11.476-11.471A11.473,11.473,0,0,0,730.009,362.6Z" transform="translate(-703.026 -323.241)" fill="#fff"/>
    </g>
    <g id="Сгруппировать_1467" data-name="Сгруппировать 1467" transform="translate(1509.162 2534.749)">
      <path id="Контур_1499" data-name="Контур 1499" d="M604.02,335.956a17.647,17.647,0,0,1-.853,5.115,60.2,60.2,0,0,1-5.039,11.007c-2.249,4.03-4.652,7.984-6.126,11.317a1.522,1.522,0,0,1-1.473.931,1.644,1.644,0,0,1-1.474-.931c-3.489-7.828-12.018-18.913-12.018-27.439a13.491,13.491,0,0,1,26.982,0Z" transform="translate(-577.038 -322.468)" fill="#8c8be5"/>
      <path id="Контур_1500" data-name="Контур 1500" d="M600.988,338.725a60.206,60.206,0,0,1-5.039,11.007L584.4,338.182l5.04-4.805,3.334-3.023Z" transform="translate(-574.858 -320.131)" fill="#8c8be5"/>
      <path id="Контур_1501" data-name="Контур 1501" d="M588.758,340.271a5.736,5.736,0,1,0-5.739-5.736A5.736,5.736,0,0,0,588.758,340.271Z" transform="translate(-575.266 -320.592)" fill="#fff"/>
    </g>
    <g id="Сгруппировать_1469" data-name="Сгруппировать 1469" transform="translate(1217.04 2621.755)">
      <path id="Контур_1505" data-name="Контур 1505" d="M802.646,439.848a17.648,17.648,0,0,1-.853,5.116,60.225,60.225,0,0,1-5.039,11.007c-2.249,4.03-4.652,7.984-6.126,11.317a1.521,1.521,0,0,1-1.472.929,1.645,1.645,0,0,1-1.474-.929c-3.489-7.828-12.018-18.913-12.018-27.44a13.491,13.491,0,0,1,26.982,0Z" transform="translate(-775.663 -426.361)" fill="#8c8be5"/>
      <path id="Контур_1506" data-name="Контур 1506" d="M799.613,442.618a60.264,60.264,0,0,1-5.039,11.007l-11.554-11.55,5.04-4.805,3.334-3.023Z" transform="translate(-773.483 -424.024)" fill="url(#linear-gradient-6)"/>
      <path id="Контур_1507" data-name="Контур 1507" d="M787.383,444.164a5.736,5.736,0,1,0-5.739-5.736A5.736,5.736,0,0,0,787.383,444.164Z" transform="translate(-773.891 -424.485)" fill="#fff"/>
    </g>
  </g>
</svg>
