<svg xmlns="http://www.w3.org/2000/svg" xmlns:xlink="http://www.w3.org/1999/xlink" width="105.915" height="109.075" viewBox="0 0 105.915 109.075">
  <defs>
    <linearGradient id="linear-gradient" x1="0.234" y1="10.295" x2="0.79" y2="9.82" gradientUnits="objectBoundingBox">
      <stop offset="0" stop-color="#e81778"/>
      <stop offset="1" stop-color="#e01f79" stop-opacity="0"/>
    </linearGradient>
    <linearGradient id="linear-gradient-2" x1="0.838" y1="17.219" x2="0.157" y2="17.901" gradientUnits="objectBoundingBox">
      <stop offset="0.011" stop-color="#ffc9e3"/>
      <stop offset="1" stop-color="#fff"/>
    </linearGradient>
  </defs>
  <g id="Сгруппировать_1668" data-name="Сгруппировать 1668" transform="translate(-6.885 0)">
    <g id="Сгруппировать_1665" data-name="Сгруппировать 1665" transform="translate(0 0)">
      <path id="Контур_2039" data-name="Контур 2039" d="M421.716,843.776v69.7l17.649,2.811a6.775,6.775,0,0,0,7.855-6.592V844.455a6.674,6.674,0,0,0-5.721-6.592l-4.461-.679Z" transform="translate(-356.841 -819.153)" fill="#f2f5fc"/>
      <path id="Контур_2040" data-name="Контур 2040" d="M390.715,837.661l16.292-1.551-16.292,12.021Z" transform="translate(-356.581 -819.144)" fill="#dde1f0"/>
      <path id="Контур_2041" data-name="Контур 2041" d="M363.234,839v21.231l12.607-5.623,5.527-2.423,9.116-4.071v-10.47l-20.849-3.877c-.194,0-.291-.1-.485-.1a5.393,5.393,0,0,0-5.722,3.781A9.631,9.631,0,0,0,363.234,839Z" transform="translate(-356.349 -819.123)" fill="#f2f5fc"/>
      <path id="Контур_2042" data-name="Контур 2042" d="M363.234,877.652v29.664a7.474,7.474,0,0,0,.194,1.455,4.8,4.8,0,0,0,1.26,2.132,6.183,6.183,0,0,0,2.909,1.648l.388.1,4.073.775,2.715.485,15.612,2.908V865.243l-.485.194-4.849,2.229Z" transform="translate(-356.349 -819.389)" fill="#f2f5fc"/>
      <path id="Контур_2043" data-name="Контур 2043" d="M421.716,843.756v-9.113l15.419,2.423-15.322,6.592Z" transform="translate(-356.841 -819.132)" fill="#d6dbeb"/>
      <path id="Контур_2044" data-name="Контур 2044" d="M390.715,864.986V848.118L407.007,836.1l14.448-1.454v9.113Z" transform="translate(-356.581 -819.132)" fill="#c5ccde"/>
      <path id="Контур_2045" data-name="Контур 2045" d="M390.484,865.1l-27.25,12.409V860.349l27.25-12.117Z" transform="translate(-356.349 -819.246)" fill="#d6dbeb"/>
      <path id="Контур_2046" data-name="Контур 2046" d="M391.49,905.876l-.775.291v-41.1l30.74-21.231v44.885h-4.46Z" transform="translate(-356.581 -819.209)" fill="#dde1f0"/>
      <path id="Контур_2047" data-name="Контур 2047" d="M447.319,889.1v21.037a6.732,6.732,0,0,1-7.855,6.592l-17.649-2.811V889.1Z" transform="translate(-356.842 -819.59)" fill="#ccd7ff"/>
      <path id="Контур_2048" data-name="Контур 2048" d="M390.559,906.7v10.47l-18.425-3.393Z" transform="translate(-356.424 -819.738)" fill="#c2c1f5"/>
      <path id="Контур_2049" data-name="Контур 2049" d="M391.49,906.256l25.5-17.158h4.46v24.914l-30.74,3.005V906.548Z" transform="translate(-356.581 -819.59)" fill="#aaa9f2"/>
      <path id="Контур_2050" data-name="Контур 2050" d="M363.43,908.506a4.806,4.806,0,0,0,1.26,2.133,6.2,6.2,0,0,0,2.909,1.648l.388.1,4.073.776,2.715.485,15.613-4.265.582-.195,30.255-18.419h25.5v-7.271l-25.5.388h-2.618l-28.122-17.837-.485-.776-8.631-13.087-12.121-18.419a5.392,5.392,0,0,0-5.721,3.78L375.843,854.7l9.212,12.8,5.334,7.465,20.946,13.378-20.946,13.572-.193.193Z" transform="translate(-356.351 -819.124)" fill="#fff"/>
      <path id="Контур_2051" data-name="Контур 2051" d="M406.349,831.2a1.552,1.552,0,1,0-1.551-1.552A1.552,1.552,0,0,0,406.349,831.2Z" transform="translate(-356.699 -819.077)" fill="#eaeef9"/>
      <g id="Сгруппировать_1522" data-name="Сгруппировать 1522" transform="translate(17.94 0)">
        <path id="Контур_2052" data-name="Контур 2052" d="M408.13,835.868a22.078,22.078,0,0,1-1.067,6.4,75.261,75.261,0,0,1-6.3,13.765c-2.812,5.041-5.819,9.985-7.661,14.154a1.9,1.9,0,0,1-1.842,1.163,2.058,2.058,0,0,1-1.843-1.163c-4.363-9.791-15.031-23.654-15.031-34.318a16.873,16.873,0,0,1,33.747,0Z" transform="translate(-374.383 -819)" fill="#d9308a"/>
      </g>
      <path id="Контур_2053" data-name="Контур 2053" d="M407.164,842.375a75.246,75.246,0,0,1-6.3,13.765L386.412,841.7l6.3-6.01,4.17-3.781Z" transform="translate(-356.544 -819.109)" fill="url(#linear-gradient)"/>
      <path id="Контур_2054" data-name="Контур 2054" d="M391.339,843.71a7.174,7.174,0,1,0-7.176-7.173A7.174,7.174,0,0,0,391.339,843.71Z" transform="translate(-356.525 -819.087)" fill="url(#linear-gradient-2)"/>
    </g>
    <g id="Сгруппировать_1666" data-name="Сгруппировать 1666" transform="translate(58.114 44.676)">
      <path id="Контур_1652" data-name="Контур 1652" d="M408.9,1505.31H403.39v3.588H408.9Z" transform="translate(-380.054 -1497.878)" fill="#b3bfcf"/>
      <path id="Контур_1653" data-name="Контур 1653" d="M408.9,1505.31H403.39v1.538H408.9Z" transform="translate(-380.054 -1497.878)" fill="#9fadbf"/>
      <path id="Контур_1654" data-name="Контур 1654" d="M378.416,1516.19l-2.992,2.99,2.176,2.175,2.992-2.99Z" transform="translate(-370.465 -1501.608)" fill="#b3bfcf"/>
      <path id="Контур_1655" data-name="Контур 1655" d="M433.22,1518.145l2.992,2.99,1.95-1.945-2.992-2.99Z" transform="translate(-390.282 -1501.612)" fill="#b3bfcf"/>
      <path id="Контур_1656" data-name="Контур 1656" d="M396.858,1564.317a26.528,26.528,0,1,0-26.542-26.529A26.533,26.533,0,0,0,396.858,1564.317Z" transform="translate(-368.714 -1499.918)" fill="#d3dae6"/>
      <path id="Контур_1657" data-name="Контур 1657" d="M394.419,1562.857a26.528,26.528,0,1,0-26.542-26.529A26.538,26.538,0,0,0,394.419,1562.857Z" transform="translate(-367.878 -1499.417)" fill="#8c8be5" stroke="#d3dae6" stroke-miterlimit="10" stroke-width="1"/>
      <path id="Контур_1658" data-name="Контур 1658" d="M372.056,1538.932a1.15,1.15,0,0,1-1.154-1.157v-.315a24.564,24.564,0,0,1,21.477-24.353,1.16,1.16,0,1,1,.257,2.306,22.266,22.266,0,0,0-19.425,22.047v.315A1.15,1.15,0,0,1,372.056,1538.932Z" transform="translate(-368.915 -1500.549)" fill="#b2b1e8"/>
      <path id="Контур_1659" data-name="Контур 1659" d="M403.824,1575.772a23.827,23.827,0,0,1-7.693-1.216,1.175,1.175,0,1,1,.705-2.241,21.533,21.533,0,0,0,6.988,1.084,22.305,22.305,0,0,0,22.054-19.287,1.161,1.161,0,0,1,2.308.256,24.806,24.806,0,0,1-8.078,15.186A24.229,24.229,0,0,1,403.824,1575.772Z" transform="translate(-377.282 -1514.257)" fill="#b2b1e8"/>
      <path id="Контур_1660" data-name="Контур 1660" d="M418.171,1539.37v.7a20.72,20.72,0,0,1-41.415,0v-.7a20.713,20.713,0,0,1,19.939-20.7h.769a20.7,20.7,0,0,1,20.708,20.312Z" transform="translate(-370.922 -1502.458)" fill="#edf0fc"/>
      <path id="Контур_1661" data-name="Контур 1661" d="M418.171,1540.81a20.72,20.72,0,1,1-20.708-19.99A20.72,20.72,0,0,1,418.171,1540.81Z" transform="translate(-370.922 -1503.196)" fill="#fff"/>
      <path id="Контур_1662" data-name="Контур 1662" d="M409.935,1566.105h-11.86a1.012,1.012,0,0,1-1.026-1.025v-5.895a1.015,1.015,0,0,1,1.026-1.025h11.86a1.015,1.015,0,0,1,1.026,1.025v5.895A1.012,1.012,0,0,1,409.935,1566.105Z" transform="translate(-377.88 -1515.999)" fill="#f2f5fc"/>
      <path id="Контур_1663" data-name="Контур 1663" d="M433.277,1550.66h-3.4a1.025,1.025,0,1,1,0-2.05h3.4a1.012,1.012,0,0,1,1.026,1.025A1.057,1.057,0,0,1,433.277,1550.66Z" transform="translate(-388.785 -1512.724)" fill="#dae1ed"/>
      <path id="Контур_1664" data-name="Контур 1664" d="M382.253,1550.66h-3.4a1.025,1.025,0,1,1,0-2.05h3.4a1.012,1.012,0,0,1,1.026,1.025A1.058,1.058,0,0,1,382.253,1550.66Z" transform="translate(-371.29 -1512.724)" fill="#dae1ed"/>
      <path id="Контур_1665" data-name="Контур 1665" d="M406.953,1577.068a1.011,1.011,0,0,1-1.026-1.025v-3.4a1.026,1.026,0,0,1,2.052,0v3.4A1.1,1.1,0,0,1,406.953,1577.068Z" transform="translate(-380.924 -1520.614)" fill="#dae1ed"/>
      <path id="Контур_1666" data-name="Контур 1666" d="M406.953,1526.1a1.012,1.012,0,0,1-1.026-1.025v-3.331a1.026,1.026,0,0,1,2.052,0v3.4A1.094,1.094,0,0,1,406.953,1526.1Z" transform="translate(-380.924 -1503.161)" fill="#dae1ed"/>
      <path id="Контур_1667" data-name="Контур 1667" d="M406.239,1551.182a3.141,3.141,0,1,0-3.141-3.141A3.141,3.141,0,0,0,406.239,1551.182Z" transform="translate(-379.954 -1511.452)" fill="#f2f5fc"/>
      <path id="Контур_1668" data-name="Контур 1668" d="M419.817,1530.634a.971.971,0,0,0-1.283,0L407.443,1542.3h-.128a1.448,1.448,0,0,0-1.475,1.472v.191l-1.795,1.859a.973.973,0,0,0,0,1.281.805.805,0,0,0,.641.256.731.731,0,0,0,.641-.256l1.795-1.86h.129a1.448,1.448,0,0,0,1.474-1.472v-.19l11.092-11.6A.928.928,0,0,0,419.817,1530.634Z" transform="translate(-380.196 -1506.478)" fill="#dae1ed"/>
      <path id="Контур_1669" data-name="Контур 1669" d="M418.548,1529.564a.97.97,0,0,0-1.282,0l-11.091,11.664h-.128a1.448,1.448,0,0,0-1.475,1.472v.19l-1.8,1.86a.972.972,0,0,0,0,1.281.83.83,0,0,0,.641.256.747.747,0,0,0,.641-.256l1.8-1.86h.128a1.448,1.448,0,0,0,1.475-1.472v-.191l11.091-11.6A.986.986,0,0,0,418.548,1529.564Z" transform="translate(-379.761 -1506.111)" fill="#eb358a"/>
      <path id="Контур_1670" data-name="Контур 1670" d="M418.286,1530.032l-15.066,15.7h-.256a.6.6,0,0,1,.064-.644l14.489-15.187a.59.59,0,0,1,.705-.066C418.35,1529.835,418.35,1529.966,418.286,1530.032Z" transform="translate(-379.884 -1506.257)" fill="#ff4fa2"/>
      <path id="Контур_1671" data-name="Контур 1671" d="M410.227,1496.372v3.457a2.366,2.366,0,0,1-2.372,2.372h-5.9a2.367,2.367,0,0,1-2.372-2.372v-3.457a2.367,2.367,0,0,1,2.372-2.372h5.9A2.367,2.367,0,0,1,410.227,1496.372Z" transform="translate(-378.749 -1494)" fill="#1c3754"/>
      <path id="Контур_1672" data-name="Контур 1672" d="M410.227,1496.372v3.457a2.366,2.366,0,0,1-2.372,2.372h-5.9a2.367,2.367,0,0,1-2.372-2.372v-.637a1.993,1.993,0,0,0,1.86,1.663h6.09a1.559,1.559,0,0,0,1.538-1.538v-2.5c0-1.728-.32-2.372-1.218-2.819A2.367,2.367,0,0,1,410.227,1496.372Z" transform="translate(-378.749 -1494)" fill="#172d45"/>
      <path id="Контур_1673" data-name="Контур 1673" d="M400.784,1501.053a.3.3,0,0,1-.321-.322v-3.969a.321.321,0,1,1,.641,0v3.969C401.04,1500.922,400.912,1501.053,400.784,1501.053Z" transform="translate(-379.05 -1494.837)" fill="#2d5887"/>
      <path id="Контур_1674" data-name="Контур 1674" d="M403.028,1501.053a.305.305,0,0,1-.321-.322v-3.969a.321.321,0,1,1,.641,0v3.969A.3.3,0,0,1,403.028,1501.053Z" transform="translate(-379.82 -1494.837)" fill="#2d5887"/>
      <path id="Контур_1675" data-name="Контур 1675" d="M405.37,1501.053a.3.3,0,0,1-.321-.322v-3.969a.32.32,0,1,1,.641,0v3.969C405.626,1500.922,405.5,1501.053,405.37,1501.053Z" transform="translate(-380.623 -1494.837)" fill="#2d5887"/>
      <path id="Контур_1676" data-name="Контур 1676" d="M407.613,1501.053a.305.305,0,0,1-.321-.322v-3.969a.321.321,0,1,1,.641,0v3.969A.305.305,0,0,1,407.613,1501.053Z" transform="translate(-381.392 -1494.837)" fill="#2d5887"/>
      <path id="Контур_1677" data-name="Контур 1677" d="M409.955,1501.053a.3.3,0,0,1-.321-.322v-3.969a.321.321,0,1,1,.641,0v3.969C410.211,1500.922,410.083,1501.053,409.955,1501.053Z" transform="translate(-382.195 -1494.837)" fill="#2d5887"/>
      <path id="Контур_1678" data-name="Контур 1678" d="M412.2,1501.053a.305.305,0,0,1-.321-.322v-3.969a.321.321,0,1,1,.641,0v3.969A.347.347,0,0,1,412.2,1501.053Z" transform="translate(-382.964 -1494.837)" fill="#2d5887"/>
      <path id="Контур_1679" data-name="Контур 1679" d="M414.443,1501.053a.305.305,0,0,1-.321-.322v-3.969a.32.32,0,1,1,.641,0v3.969A.3.3,0,0,1,414.443,1501.053Z" transform="translate(-383.734 -1494.837)" fill="#2d5887" opacity="0.7" style="isolation: isolate"/>
      <path id="Контур_1680" data-name="Контур 1680" d="M376.564,1514l-3.206,3.207a1.9,1.9,0,0,1-2.629,0l-1.86-1.86a1.9,1.9,0,0,1,0-2.628l3.206-3.2a1.888,1.888,0,0,1,2.628,0l1.86,1.853A1.9,1.9,0,0,1,376.564,1514Z" transform="translate(-368.037 -1499.14)" fill="#1c3754"/>
      <path id="Контур_1681" data-name="Контур 1681" d="M435.016,1514l3.206,3.207a1.9,1.9,0,0,0,2.629,0l1.86-1.86a1.9,1.9,0,0,0,0-2.628l-3.206-3.2a1.888,1.888,0,0,0-2.629,0l-1.86,1.853A1.9,1.9,0,0,0,435.016,1514Z" transform="translate(-390.716 -1499.14)" fill="#1c3754"/>
      <path id="Контур_1682" data-name="Контур 1682" d="M407.744,1549.8a.256.256,0,1,0-.256-.256A.254.254,0,0,0,407.744,1549.8Z" transform="translate(-381.459 -1512.957)" fill="#1c3754"/>
      <path id="Контур_1686" data-name="Контур 1686" d="M428.608,1539.048H407.2V1518.67h.769A20.7,20.7,0,0,1,428.608,1539.048Z" transform="translate(-381.359 -1502.458)" fill="#f2f5fc" opacity="0.4" style="isolation: isolate"/>
    </g>
  </g>
</svg>
