<svg xmlns="http://www.w3.org/2000/svg" xmlns:xlink="http://www.w3.org/1999/xlink" width="371" height="307" viewBox="0 0 371 307">
  <defs>
    <linearGradient id="linear-gradient" x1="0.534" y1="2.561" x2="1.095" y2="2.103" gradientUnits="objectBoundingBox">
      <stop offset="0.003" stop-color="#606673" stop-opacity="0"/>
      <stop offset="1" stop-color="#373c47"/>
    </linearGradient>
    <linearGradient id="linear-gradient-2" y1="0.5" x2="1" y2="0.5" gradientUnits="objectBoundingBox">
      <stop offset="0" stop-color="#aebcff"/>
      <stop offset="1" stop-color="#6c6bcc"/>
    </linearGradient>
    <linearGradient id="linear-gradient-3" x1="0" y1="0.5" x2="1" y2="0.5" xlink:href="#linear-gradient-2"/>
    <linearGradient id="linear-gradient-4" x1="-0.001" y1="2.372" x2="1.001" y2="2.372" xlink:href="#linear-gradient-2"/>
  </defs>
  <g id="Сгруппировать_2136" data-name="Сгруппировать 2136" transform="translate(-777 -3034)">
    <g id="Прямоугольник_2064" data-name="Прямоугольник 2064" transform="translate(777 3034)" fill="#fff" stroke="#707070" stroke-width="1" opacity="0">
      <rect width="371" height="307" stroke="none"/>
      <rect x="0.5" y="0.5" width="370" height="306" fill="none"/>
    </g>
    <g id="Сгруппировать_1682" data-name="Сгруппировать 1682" transform="translate(842.105 3103.658)">
      <path id="Контур_1517" data-name="Контур 1517" d="M593.544,949.162v130.547H477.71a9.918,9.918,0,0,1-9.963-10.006V949.162Z" transform="translate(-467.747 -949.162)" fill="#e9edf5"/>
      <path id="Контур_1518" data-name="Контур 1518" d="M610.957,949.162V1069.7a9.919,9.919,0,0,1-9.96,10.006H556.031V949.162Z" transform="translate(-430.518 -949.162)" fill="#dae1ed"/>
      <path id="Контур_1519" data-name="Контур 1519" d="M610.957,949.162V1069.7a9.919,9.919,0,0,1-9.96,10.006H556.031V949.162Z" transform="translate(-430.518 -949.162)" opacity="0.2" fill="url(#linear-gradient)" style="isolation: isolate"/>
      <g id="Сгруппировать_1474" data-name="Сгруппировать 1474" transform="translate(70.6 16.096)">
        <path id="Контур_1520" data-name="Контур 1520" d="M633.4,987.817v42.324a9.3,9.3,0,0,1-9.3,9.3H581.781a9.3,9.3,0,0,1-9.3-9.3V987.817a9.324,9.324,0,0,1,9.3-9.3H624.1a9.294,9.294,0,0,1,9.284,8.885A4.067,4.067,0,0,1,633.4,987.817Z" transform="translate(-494.18 -952.879)" fill="#d1057d"/>
        <path id="Контур_1521" data-name="Контур 1521" d="M632.785,987.4c-.54.412-1.095.825-1.649,1.237a108.724,108.724,0,0,1-11.061,7.236c-2.317,1.336-4.763,2.63-7.336,3.853-2.616,1.265-5.346,2.445-8.218,3.554a111.975,111.975,0,0,1-30.609,7.08V982.031a9.223,9.223,0,0,1,7.265-3.512H623.5A9.293,9.293,0,0,1,632.785,987.4Z" transform="translate(-493.578 -952.879)" fill="#eaeef9" opacity="0.32"/>
        <path id="Контур_1522" data-name="Контур 1522" d="M590.477,1009.04a30.347,30.347,0,0,1-30.325,30.325,30.337,30.337,0,0,1-30.339-30.325,29.751,29.751,0,0,1,1.208-8.459,30.336,30.336,0,0,1,21.994-21.027,28.4,28.4,0,0,1,5.3-.8c.611-.043,1.223-.057,1.834-.057a30.353,30.353,0,0,1,30.325,30.339Z" transform="translate(-512.174 -952.802)" fill="#d1017d"/>
        <path id="Контур_1523" data-name="Контур 1523" d="M592.157,970.679v51.565a4.672,4.672,0,0,1-4.678,4.677H566.367a4.669,4.669,0,0,1-4.663-4.677V970.679A4.669,4.669,0,0,1,566.367,966h21.112A4.672,4.672,0,0,1,592.157,970.679Z" transform="translate(-498.726 -958.158)" fill="#ec008c"/>
        <path id="Контур_1524" data-name="Контур 1524" d="M605.246,972.966v10.151c-1.223,1-2.5,1.991-3.839,2.971a108.592,108.592,0,0,1-11.061,7.236c-2.317,1.336-4.763,2.63-7.336,3.853-2.616,1.265-5.346,2.445-8.217,3.554a113.626,113.626,0,0,1-44.129,7.492A30.335,30.335,0,0,1,552.657,987.2a18.3,18.3,0,0,1-9.98-4.109c-7.848-6.611-6.327-16.918-6.227-17.473l-.014-.028c.484-.071,10.847-1.649,17.473,6.241A19.128,19.128,0,0,1,557.96,986.4c.611-.042,1.223-.057,1.834-.057a30.1,30.1,0,0,1,15,3.981V972.966a4.669,4.669,0,0,1,4.663-4.677h2.858V963.27a2.791,2.791,0,0,1,2.787-2.786H595a2.791,2.791,0,0,1,2.787,2.786v5.019h2.786A4.672,4.672,0,0,1,605.246,972.966Z" transform="translate(-511.815 -960.484)" fill="#eaeef9" opacity="0.32"/>
        <path id="Контур_1525" data-name="Контур 1525" d="M613.689,972.842a5.143,5.143,0,0,1-1.507,3.654l-26.4,26.394,5.027-19.64,14.061-14.061a5.161,5.161,0,0,1,8.814,3.654Z" transform="translate(-488.57 -957.452)" fill="#6c6bcc" opacity="0.75"/>
        <path id="Контур_1526" data-name="Контур 1526" d="M582.512,963.27V968.8H567.044V963.27a2.791,2.791,0,0,1,2.786-2.786h9.9A2.791,2.791,0,0,1,582.512,963.27Z" transform="translate(-496.474 -960.484)" fill="url(#linear-gradient-2)"/>
        <path id="Контур_1527" data-name="Контур 1527" d="M556.3,984.966q-.043.341-.085.554l.071.071c-.029,0-.057.014-.085.014a.086.086,0,0,1-.014.057l-.029-.043a19.748,19.748,0,0,1-5.161.142,18.3,18.3,0,0,1-9.98-4.109c-7.848-6.611-6.327-16.918-6.227-17.473l-.014-.028c.483-.071,10.848-1.649,17.473,6.241A19.129,19.129,0,0,1,556.3,984.966Z" transform="translate(-510.153 -959.01)" fill="url(#linear-gradient-3)"/>
        <g id="Сгруппировать_1473" data-name="Сгруппировать 1473" transform="translate(0 60.436)">
          <path id="Контур_1528" data-name="Контур 1528" d="M664.687,1018.452l-.98,5.247v.653l-10.789,56.414a11.245,11.245,0,0,1-11.116,9.513H545.35a11.247,11.247,0,0,1-11.116-9.513l-10.788-56.414v-.653l-.981-5.247Z" transform="translate(-515.273 -996.476)" fill="url(#linear-gradient-4)"/>
          <path id="Контур_1529" data-name="Контур 1529" d="M664.784,1018.452l-.979,5.247H523.543l-1.308-5.247Z" transform="translate(-515.37 -996.476)" fill="#353895"/>
          <path id="Контур_1530" data-name="Контур 1530" d="M528.848,1024.966h-3.6c-4.249,0-7.846-3.278-7.846-7.212v-7.543c0-3.938,3.6-7.217,7.846-7.217H666.167c4.25,0,7.846,3.279,7.846,7.217v7.543c0,3.934-3.6,7.212-7.846,7.212h-3.6" transform="translate(-517.406 -1002.994)" fill="#6c6bcc"/>
          <path id="Контур_1531" data-name="Контур 1531" d="M545.156,1030.683a3.014,3.014,0,1,0-5.883,1.314l7.519,37.719c.653,3.934,6.865,2.952,5.886-1.314Z" transform="translate(-508.211 -992.312)" fill="#fff"/>
          <path id="Контур_1532" data-name="Контур 1532" d="M559.738,1031.009a3.145,3.145,0,1,0-6.213.984c.984,7.872,4.254,29.519,5.233,37.719a2.986,2.986,0,1,0,5.886-.984C564.644,1065.12,560.392,1035.275,559.738,1031.009Z" transform="translate(-502.196 -992.308)" fill="#fff"/>
          <path id="Контур_1533" data-name="Контур 1533" d="M570.3,1031.321v37.719c0,3.936,6.213,3.936,6.213,0v-37.719C576.512,1027.386,570.3,1027.386,570.3,1031.321Z" transform="translate(-495.101 -992.293)" fill="#fff"/>
          <path id="Контур_1534" data-name="Контур 1534" d="M588.653,1030.991c-2.616,19.351-1.636,10.495-5.232,37.719-.654,3.936,5.559,4.918,5.886.984l2.943-21.976v-.654l1.96-15.088C595.193,1027.71,588.98,1027.056,588.653,1030.991Z" transform="translate(-489.588 -992.29)" fill="#fff"/>
          <path id="Контур_1535" data-name="Контур 1535" d="M603.592,1030.691c-.982,4.919-7.192,35.751-7.522,37.716-.654,3.938,5.233,5.248,5.886,1.313L609.475,1032C610.455,1028.067,604.572,1026.754,603.592,1030.691Z" transform="translate(-484.256 -992.317)" fill="#fff"/>
        </g>
        <path id="Контур_1536" data-name="Контур 1536" d="M623.067,972.842a5.143,5.143,0,0,1-1.507,3.654l-20.131,20.131-29.059,29.059a5.167,5.167,0,0,1-7.308-7.308l35.13-35.13,14.06-14.061a5.161,5.161,0,0,1,8.815,3.654Z" transform="translate(-497.948 -957.452)" fill="url(#linear-gradient-3)"/>
        <rect id="Прямоугольник_2004" data-name="Прямоугольник 2004" width="12.554" height="8.111" rx="0.722" transform="translate(122.363 49.369)" fill="#eaeef9" opacity="0.32"/>
      </g>
      <path id="Контур_1537" data-name="Контур 1537" d="M512.091,988.012h-33c-1.759,0-3.209-.836-3.209-1.851V962.335c0-1.015,1.45-1.851,3.209-1.851h33c1.759,0,3.207.836,3.207,1.851v23.826C515.3,987.176,513.85,988.012,512.091,988.012Z" transform="translate(-464.318 -944.388)" fill="#fff" stroke="#e4e8f5" stroke-linecap="round" stroke-linejoin="round" stroke-width="0.494" stroke-dasharray="0.993 0.993"/>
    </g>
  </g>
</svg>
