<svg xmlns="http://www.w3.org/2000/svg" xmlns:xlink="http://www.w3.org/1999/xlink" width="119.372" height="106.116" viewBox="0 0 119.372 106.116">
  <defs>
    <linearGradient id="linear-gradient" y1="-63.896" x2="1.004" y2="-63.896" gradientUnits="objectBoundingBox">
      <stop offset="0" stop-color="#bdcfff"/>
      <stop offset="1" stop-color="#91a5ff" stop-opacity="0.502"/>
    </linearGradient>
    <linearGradient id="linear-gradient-2" x1="0" y1="-53.692" x2="1.003" y2="-53.692" xlink:href="#linear-gradient"/>
  </defs>
  <g id="Сгруппировать_1667" data-name="Сгруппировать 1667" transform="translate(0 0)">
    <path id="Контур_1629" data-name="Контур 1629" d="M731.5,1231.359v13.1a2.192,2.192,0,0,0,2.122,2.121,6.019,6.019,0,0,0,6.03-5.706l.558-11.421" transform="translate(-675.243 -1171.433)" fill="#eaeef9"/>
    <path id="Контур_1630" data-name="Контур 1630" d="M731.5,1231.359v13.1a2.192,2.192,0,0,0,2.122,2.121,6.019,6.019,0,0,0,6.03-5.706l.558-11.421" transform="translate(-675.243 -1171.433)" fill="none"/>
    <path id="Контур_1631" data-name="Контур 1631" d="M735.7,1233.22l4.69,23.62a2.122,2.122,0,0,0,2.456,1.676,6.093,6.093,0,0,0,4.8-6.827l-2.791-18.248" transform="translate(-675.201 -1171.396)" fill="#d9dde8"/>
    <path id="Контур_1632" data-name="Контур 1632" d="M735.7,1233.22l4.69,23.62a2.122,2.122,0,0,0,2.456,1.676,6.093,6.093,0,0,0,4.8-6.827l-2.791-18.248" transform="translate(-675.201 -1171.396)" fill="none"/>
    <g id="Сгруппировать_1484" data-name="Сгруппировать 1484" transform="translate(0 0)">
      <path id="Контур_1633" data-name="Контур 1633" d="M679.566,1219.271l62.864,19.258a5.237,5.237,0,0,0,6.588-3.474l11.278-36.94a5.245,5.245,0,0,0-3.462-6.6l-62.976-19.258a5.222,5.222,0,0,0-6.588,3.474l-11.278,36.94A5.354,5.354,0,0,0,679.566,1219.271Z" transform="translate(-675.791 -1171.999)" fill="#8c8be5"/>
    </g>
    <path id="Контур_1634" data-name="Контур 1634" d="M746.428,1229.206h-.335l-22-6.715a1.1,1.1,0,0,1,.558-2.131l22,6.715a1.217,1.217,0,0,1,.782,1.343A1.068,1.068,0,0,1,746.428,1229.206Z" transform="translate(-675.324 -1171.523)" fill="url(#linear-gradient)"/>
    <path id="Контур_1635" data-name="Контур 1635" d="M743.926,1221.129h-.335l-26.128-8.069a1.1,1.1,0,1,1,.557-2.121L744.149,1219a1.217,1.217,0,0,1,.782,1.343A1.081,1.081,0,0,1,743.926,1221.129Z" transform="translate(-675.389 -1171.616)" fill="url(#linear-gradient-2)"/>
    <path id="Контур_1636" data-name="Контур 1636" d="M755.194,1213.93c7.928,1.8,17.531,4.029,22.891,5.261a7.068,7.068,0,0,1,5.247,5.039c1.006,3.7,2.457,9.069,3.238,13.1,1.34,6.715,1.34,12.542,5.918,19.48.447.677,1,1.454,1.452,2.131a3.866,3.866,0,0,1-.112,4.585s-9.49,8.957-13.846,13.1a4.022,4.022,0,0,1-4.913.444c-4.354-2.686-12.952-8.059-15.632-10.4a34.745,34.745,0,0,1-8.821-11.754c-2.233-4.706-3.462-8.291-11.389-16.127-3.908-3.807-6.811-7.271-8.933-9.735a5.88,5.88,0,0,1,.446-7.947,5.984,5.984,0,0,1,8.487,0l19.651,19.591s-2.9-3.141-1.786-11.31l-5.807-2.908" transform="translate(-675.268 -1171.586)" fill="#eaeef9"/>
    <path id="Контур_1637" data-name="Контур 1637" d="M755.194,1213.93c7.928,1.8,17.531,4.029,22.891,5.261a7.068,7.068,0,0,1,5.247,5.039c1.006,3.7,2.457,9.069,3.238,13.1,1.34,6.715,1.34,12.542,5.918,19.48.447.677,1,1.454,1.452,2.131a3.866,3.866,0,0,1-.112,4.585s-9.49,8.957-13.846,13.1a4.022,4.022,0,0,1-4.913.444c-4.354-2.686-12.952-8.059-15.632-10.4a34.745,34.745,0,0,1-8.821-11.754c-2.233-4.706-3.462-8.291-11.389-16.127-3.908-3.807-6.811-7.271-8.933-9.735a5.88,5.88,0,0,1,.446-7.947,5.984,5.984,0,0,1,8.487,0l19.651,19.591s-2.9-3.141-1.786-11.31l-5.807-2.908" transform="translate(-675.268 -1171.586)" fill="none"/>
    <path id="Контур_1638" data-name="Контур 1638" d="M760.709,1242.222a13.494,13.494,0,0,1-2.122-2.242Z" transform="translate(-674.976 -1171.33)" fill="#fff"/>
    <path id="Контур_1640" data-name="Контур 1640" d="M731.951,1227.766c.447.545,1.006,1.2,1.565,1.858a1.3,1.3,0,0,0,1.9.1l4.251-3.817a1.229,1.229,0,0,0,0-1.848l-1.678-1.858a4.3,4.3,0,0,0-2.908-1.2,4.025,4.025,0,0,0-3.021,1.313A4.2,4.2,0,0,0,731.951,1227.766Z" transform="translate(-675.248 -1171.516)" fill="#fff"/>
    <path id="Контур_1641" data-name="Контур 1641" d="M704.978,1208.957a1.012,1.012,0,0,0,.558-.111,1.4,1.4,0,0,0,.782-1.788,7.139,7.139,0,0,1-.112-4.817,7.641,7.641,0,0,1,2.9-3.807,1.382,1.382,0,0,0-1.451-2.353,9.782,9.782,0,0,0-4.02,5.372,9.939,9.939,0,0,0,.223,6.726A1.109,1.109,0,0,0,704.978,1208.957Z" transform="translate(-675.522 -1171.763)" fill="#fff"/>
    <path id="Контур_1642" data-name="Контур 1642" d="M699.458,1211.922a1.01,1.01,0,0,0,.558-.111,1.435,1.435,0,0,0,.671-1.9,13.636,13.636,0,0,1-.558-9.624,13.335,13.335,0,0,1,6.03-7.5,1.382,1.382,0,0,0-1.452-2.353,16.251,16.251,0,0,0-6.587,20.712A1.355,1.355,0,0,0,699.458,1211.922Z" transform="translate(-675.586 -1171.82)" fill="#fff"/>
    <path id="Контур_1643" data-name="Контур 1643" d="M694.156,1214.782a.841.841,0,0,0,.558-.111,1.45,1.45,0,0,0,.67-1.909,20.151,20.151,0,0,1-.893-14.219,19.558,19.558,0,0,1,8.932-11.078,1.4,1.4,0,0,0-1.339-2.464,21.958,21.958,0,0,0-10.161,12.653,22.64,22.64,0,0,0,1,16.228A1.433,1.433,0,0,0,694.156,1214.782Z" transform="translate(-675.643 -1171.872)" fill="#fff"/>
    <path id="Контур_1644" data-name="Контур 1644" d="M750.014,1203.9a5.249,5.249,0,1,0-6.569,3.464A5.26,5.26,0,0,0,750.014,1203.9Z" transform="translate(-675.162 -1171.752)" fill="#ec008c"/>
    <path id="Контур_1645" data-name="Контур 1645" d="M738.4,1205.5a5.261,5.261,0,1,0-5.248-5.261A5.259,5.259,0,0,0,738.4,1205.5Z" transform="translate(-675.227 -1171.772)" fill="#ec008c" opacity="0.494"/>
  </g>
</svg>
