<svg xmlns="http://www.w3.org/2000/svg" xmlns:xlink="http://www.w3.org/1999/xlink" width="93.986" height="111.114" viewBox="0 0 93.986 111.114">
  <defs>
    <linearGradient id="linear-gradient" x1="0.738" y1="-10.536" x2="0.278" y2="-11.445" gradientUnits="objectBoundingBox">
      <stop offset="0" stop-color="#ff66a9"/>
      <stop offset="1" stop-color="#f53689"/>
    </linearGradient>
    <linearGradient id="linear-gradient-2" x1="0.493" y1="-78.534" x2="0.501" y2="-77.097" xlink:href="#linear-gradient"/>
    <linearGradient id="linear-gradient-3" x1="0.48" y1="-54.144" x2="0.5" y2="-52.875" xlink:href="#linear-gradient"/>
    <linearGradient id="linear-gradient-4" x1="1" y1="-36.915" x2="0.001" y2="-36.915" xlink:href="#linear-gradient"/>
    <linearGradient id="linear-gradient-5" x1="0.925" y1="-41.767" x2="0.176" y2="-40.913" gradientUnits="objectBoundingBox">
      <stop offset="0.011" stop-color="#c2d1ff"/>
      <stop offset="1" stop-color="#fff"/>
    </linearGradient>
  </defs>
  <g id="Сгруппировать_1661" data-name="Сгруппировать 1661" transform="translate(0.95 0)">
    <path id="Контур_1584" data-name="Контур 1584" d="M299.1,1393.785a16.329,16.329,0,0,0-4.68-1.337c-2.389-.2-4.012,1.725-3.916,4.119a1.715,1.715,0,0,0,1.719,1.726,2.226,2.226,0,0,0,1.529-.668c2.483-2.394-.764-5.466-2.483-7a3.278,3.278,0,0,1-1.242-2.3" transform="translate(-290.027 -1327.505)" fill="none" stroke="#eb358a" stroke-linecap="round" stroke-linejoin="round" stroke-width="1.9"/>
    <path id="Контур_1585" data-name="Контур 1585" d="M367.315,1428.98c0,.2-1.528,7.29-2.006,9.783a1.6,1.6,0,0,1-1.051,1.156,11.389,11.389,0,0,1-7.355-.189,1.175,1.175,0,0,1-.668-.677l-1.815-8.916" transform="translate(-296.249 -1331.434)" fill="#db1a74"/>
    <path id="Контур_1586" data-name="Контур 1586" d="M336.133,1428.98c0,.2-1.528,7.29-2.005,9.783a1.6,1.6,0,0,1-1.051,1.156,12.175,12.175,0,0,1-7.833-.289l-1.91-9.4" transform="translate(-293.245 -1331.434)" fill="#db1a74"/>
    <path id="Контур_1587" data-name="Контур 1587" d="M378.332,1371.248c-.668-3.072,0-2.981-1.337-3.84a8.788,8.788,0,0,0-10.507-.388,13.61,13.61,0,0,0-3.821,3.74l1.242,4.029s8.31-1.147,8.214-1.247" transform="translate(-297.046 -1325.293)" fill="#e01b77"/>
    <path id="Контур_1588" data-name="Контур 1588" d="M379.42,1382.118c1.146-4.508,2.1-15.249-4.967-15.348-4.871-.1-8.214,4.219-10.411,8.148,0-.09.764,0,.86,0,.286,0,.669.1.955.1a12.977,12.977,0,0,1,1.815.379,27.422,27.422,0,0,1,3.726,1.057,29.419,29.419,0,0,1,3.916,1.825,21.778,21.778,0,0,1,2.388,1.626A22.376,22.376,0,0,1,379.42,1382.118Z" transform="translate(-297.179 -1325.422)" fill="#ff78b8"/>
    <path id="Контур_1589" data-name="Контур 1589" d="M298.063,1394.373c0,19.757,17.385,35.864,38.876,35.864s38.877-16.017,38.877-35.864v-1.156c-.668-19.278-17.862-34.627-38.877-34.627s-38.207,15.448-38.876,34.726Z" transform="translate(-290.803 -1324.632)" fill="url(#linear-gradient)"/>
    <path id="Контур_1591" data-name="Контур 1591" d="M350.768,1363.848l.382-1.247c.1-.19-.1-.479-.286-.578a37.641,37.641,0,0,0-22.065,0,.47.47,0,0,0-.286.578l.382,1.247a.549.549,0,0,0,.669.389,35.321,35.321,0,0,1,20.441,0A.609.609,0,0,0,350.768,1363.848Z" transform="translate(-293.743 -1324.804)" fill="#db1a74"/>
    <path id="Контур_1592" data-name="Контур 1592" d="M377.41,1390.55h6.973v22.25H377.41c-3.534,0-6.5-4.987-6.5-11.121S373.876,1390.55,377.41,1390.55Z" transform="translate(-297.843 -1327.72)" fill="#db267b"/>
    <path id="Контур_1593" data-name="Контур 1593" d="M368.807,1388.42c1,0,1.807-1.211,1.807-2.71s-.808-2.71-1.807-2.71-1.807,1.21-1.807,2.71S367.809,1388.42,368.807,1388.42Z" transform="translate(-297.464 -1326.991)" fill="#db1a74"/>
    <path id="Контур_1594" data-name="Контур 1594" d="M378.807,1388.42c1,0,1.807-1.211,1.807-2.71s-.808-2.71-1.807-2.71-1.807,1.21-1.807,2.71S377.809,1388.42,378.807,1388.42Z" transform="translate(-298.431 -1326.991)" fill="#db1a74"/>
    <path id="Контур_1595" data-name="Контур 1595" d="M349.95,1366.878c-2.961-.768-2.771-1.436-4.3-.479-1.529,1.057-5.54,3.361-4.776,9.115a14.063,14.063,0,0,0,1.529,5.176l4.107.669s2.771-7.959,2.579-7.959" transform="translate(-294.931 -1325.341)" fill="#e01b77"/>
    <path id="Контур_1596" data-name="Контур 1596" d="M359.75,1370.584c-3.438-3.071-12.226-8.338-15.474-2.1-2.293,4.309.1,9.3,2.579,12.946-.1-.1.382-.669.382-.669a5.135,5.135,0,0,1,.573-.768c.382-.479.764-.958,1.146-1.446l2.579-2.873a31.065,31.065,0,0,1,3.343-2.683,19.985,19.985,0,0,1,2.483-1.346A7.564,7.564,0,0,1,359.75,1370.584Z" transform="translate(-295.179 -1325.307)" fill="#ff78b8"/>
    <path id="Контур_1597" data-name="Контур 1597" d="M356.848,1431.32c0,.19-1.529,7.29-2.006,9.784a1.584,1.584,0,0,1-1.051,1.147,11.329,11.329,0,0,1-7.355-.19,1.133,1.133,0,0,1-.669-.669l-1.815-8.925" transform="translate(-295.237 -1331.66)" fill="url(#linear-gradient-2)"/>
    <path id="Контур_1598" data-name="Контур 1598" d="M326.3,1427.929c0,.19-1.719,8.148-2.292,10.84a1.6,1.6,0,0,1-1.051,1.147,12.4,12.4,0,0,1-8.12-.19,1.173,1.173,0,0,1-.668-.677l-2.675-15.059" transform="translate(-292.101 -1330.951)" fill="url(#linear-gradient-3)"/>
    <path id="Контур_1599" data-name="Контур 1599" d="M385.129,1412.7c3.587,0,6.5-4.986,6.5-11.129s-2.908-11.121-6.5-11.121-6.5,4.978-6.5,11.121S381.542,1412.7,385.129,1412.7Z" transform="translate(-298.589 -1327.711)" fill="url(#linear-gradient-4)"/>
    <path id="Контур_1600" data-name="Контур 1600" d="M389.119,1406.1c1,0,1.815-1.671,1.815-3.74s-.813-3.74-1.815-3.74-1.815,1.671-1.815,3.74S388.116,1406.1,389.119,1406.1Z" transform="translate(-299.426 -1328.5)" fill="#db1a74"/>
    <path id="Контур_1601" data-name="Контур 1601" d="M383.2,1406.1c1,0,1.815-1.671,1.815-3.74s-.813-3.74-1.815-3.74-1.815,1.671-1.815,3.74S382.2,1406.1,383.2,1406.1Z" transform="translate(-298.854 -1328.5)" fill="#db1a74"/>
    <path id="Контур_1602" data-name="Контур 1602" d="M354.821,1341.439A15.538,15.538,0,0,1,353.77,1347a15.31,15.31,0,0,1-9.552,9.115,16.072,16.072,0,0,1-4.776.768,15.443,15.443,0,1,1,15.379-15.448Z" transform="translate(-293.259 -1326)" fill="#8c8be5"/>
    <path id="Контур_1603" data-name="Контур 1603" d="M354.6,1346.1c-1.72,4.309-5.827,8.817-10.221,10.262l-8.884-9.3,9.074-.19-6.017-7.489,1.815-3.541.191-1.057,1.433-1.346Z" transform="translate(-293.799 -1326.118)" fill="#6c6bcc" opacity="0.641"/>
    <path id="Контур_1604" data-name="Контур 1604" d="M345.056,1336.991l-1.719,1.825a3.481,3.481,0,0,0-2.483-1.156c-1.146,0-1.815.678-1.815,1.446,0,2.493,6.59,1.048,6.59,5.845a4.105,4.105,0,0,1-3.63,4.129v1.816h-2.388v-1.816a6.482,6.482,0,0,1-4.012-2.114l1.719-1.725a4.27,4.27,0,0,0,3.153,1.436c1.433,0,2.2-.768,2.2-1.726,0-2.493-6.591-1.057-6.591-5.845a3.974,3.974,0,0,1,3.534-3.839v-1.725h2.483v1.825A5.531,5.531,0,0,1,345.056,1336.991Z" transform="translate(-294.383 -1326.729)" fill="url(#linear-gradient-5)"/>
  </g>
</svg>
