<svg xmlns="http://www.w3.org/2000/svg" xmlns:xlink="http://www.w3.org/1999/xlink" width="140.029" height="117.233" viewBox="0 0 140.029 117.233">
  <defs>
    <linearGradient id="linear-gradient" x1="0.005" y1="41.631" x2="0.999" y2="41.631" gradientUnits="objectBoundingBox">
      <stop offset="0" stop-color="#ff66a9"/>
      <stop offset="1" stop-color="#f53689"/>
    </linearGradient>
    <linearGradient id="linear-gradient-2" x1="0.5" y1="172.861" x2="0.5" y2="173.385" gradientUnits="objectBoundingBox">
      <stop offset="0" stop-color="#fff"/>
      <stop offset="0.991" stop-color="#d6deea"/>
    </linearGradient>
    <linearGradient id="linear-gradient-3" y1="111.286" y2="111.81" xlink:href="#linear-gradient-2"/>
    <linearGradient id="linear-gradient-4" x1="0" y1="56.717" x2="1" y2="56.717" xlink:href="#linear-gradient"/>
  </defs>
  <g id="Сгруппировать_1664" data-name="Сгруппировать 1664" transform="translate(0 0)">
    <path id="Контур_1605" data-name="Контур 1605" d="M345.771,735.764a50.076,50.076,0,1,0-50.031-50.076A50.054,50.054,0,0,0,345.771,735.764Z" transform="translate(-273.996 -635.612)" fill="#eff3ff"/>
    <path id="Контур_1606" data-name="Контур 1606" d="M341.541,735.684a16.362,16.362,0,0,1-5.235,11.99,15.453,15.453,0,0,1-2.919,2.116,16.479,16.479,0,0,1-16.509,0,6.83,6.83,0,0,1-1.108-.705,16.354,16.354,0,1,1,25.771-13.4Z" transform="translate(-273.993 -635.595)" fill="#dce2f0"/>
    <path id="Контур_1607" data-name="Контур 1607" d="M321.808,739.31a4.7,4.7,0,0,0,.705.705c.2.2.4.3.6.5.1.1.3.2.4.3a.1.1,0,0,1,.1.1l.1.1v1.411l-.1-.1c-.1-.1-.3-.2-.4-.3-.2-.1-.4-.3-.6-.4-.1,0-.1-.1-.2-.1-.7-.4-1.308-.806-1.308-1.31A3.666,3.666,0,0,1,321.808,739.31Zm14.295,7.859a7.112,7.112,0,0,0-3.121-3.325,6.067,6.067,0,0,0-2.315-.6h-1.006c-1.107-.1-1.208-.3-1.208-.3v-2.317a18.95,18.95,0,0,0,2.013-2.015,6.4,6.4,0,0,0,1.107-2.519,1.806,1.806,0,0,0,1.409-2.014c0-.4-.3-.806-.3-1.209V731.45a7.029,7.029,0,0,0-.7-2.216,6.794,6.794,0,0,0-6.04-3.627,7.751,7.751,0,0,0-1.51.2,5.861,5.861,0,0,0-2.517,1.209c-.1.1-.3.2-.4.4l-.1.1a6.5,6.5,0,0,0-1.812,2.821,7.5,7.5,0,0,0-.3,3.326v.2c0,.2.1.2,0,.3,0,.1-.1.1-.1.2a1.407,1.407,0,0,0-.1,1.309c.4,1.008,1.006.907,1.711,1.411a.1.1,0,0,0-.1.1l-.7.2c-3.222,1.007-4.329,3.728-2.92,5.441a4.611,4.611,0,0,0,2.516,1.41,1.239,1.239,0,0,0-.805.4,6.907,6.907,0,0,0-2.517,4.433v.3c.4.2.7.5,1.107.705h16.006a19.542,19.542,0,0,0,2.919-2.117C336.2,747.471,336.2,747.269,336.1,747.168Z" transform="translate(-273.991 -635.594)" fill="#fff"/>
    <path id="Контур_1608" data-name="Контур 1608" d="M336.3,747.669a15.449,15.449,0,0,1-2.919,2.116,16.48,16.48,0,0,1-16.509,0,6.822,6.822,0,0,1-1.108-.705v-.3a6.913,6.913,0,0,1,2.517-4.433,2.028,2.028,0,0,1,.805-.4,3.653,3.653,0,0,1-2.517-1.41H320.4a5.866,5.866,0,0,0,4.832,2.417,6.081,6.081,0,0,0,4.329-1.813h1.007a4.668,4.668,0,0,1,2.314.605A7.142,7.142,0,0,1,336,747.065C336.2,747.266,336.2,747.468,336.3,747.669Z" transform="translate(-273.991 -635.59)" fill="url(#linear-gradient)"/>
    <path id="Контур_1609" data-name="Контур 1609" d="M328.552,740.617v2.115l-6.342.2.3-1.411c.1,0,.1.1.2.1.2.1.4.3.6.4a1.388,1.388,0,0,0,.4.3.1.1,0,0,1,.1.1v-1.41l-.1-.1C324.828,741.523,326.337,741.926,328.552,740.617Z" transform="translate(-273.99 -635.591)" fill="url(#linear-gradient-2)"/>
    <path id="Контур_1610" data-name="Контур 1610" d="M332.68,731.854a10.281,10.281,0,0,1-3.926.5,10.111,10.111,0,0,1-5.738-2.418,5.982,5.982,0,0,1-3.322,3.325,1.431,1.431,0,0,1-.6.2v-.1a7.5,7.5,0,0,1,.3-3.326,6.5,6.5,0,0,1,1.811-2.821l.1-.1c.1-.1.3-.2.4-.4a5.861,5.861,0,0,1,2.517-1.209,7.75,7.75,0,0,1,1.51-.2,6.68,6.68,0,0,1,6.039,3.627,7.935,7.935,0,0,1,.705,2.216A1.449,1.449,0,0,1,332.68,731.854Z" transform="translate(-273.991 -635.594)" fill="#1c3754"/>
    <path id="Контур_1611" data-name="Контур 1611" d="M324.628,746.764a3.137,3.137,0,0,1-2.518.7c.906-.907.4-3.829-2.819-3.527-4.429-.806-4.027-5.441.4-6.851l.7-.2.1.1a7.331,7.331,0,0,0,1.308,2.318c-1.811,1.511.705,1.914,1.913,3.124C324.728,743.035,325.634,745.555,324.628,746.764Z" transform="translate(-273.991 -635.591)" fill="#1c3754"/>
    <path id="Контур_1612" data-name="Контур 1612" d="M341.541,735.684a16.362,16.362,0,0,1-5.235,11.99,15.453,15.453,0,0,1-2.919,2.116,16.479,16.479,0,0,1-16.509,0,6.83,6.83,0,0,1-1.108-.705,16.354,16.354,0,1,1,25.771-13.4Z" transform="translate(-273.993 -635.595)" fill="none" stroke="#fff" stroke-linecap="round" stroke-linejoin="round" stroke-width="1.643"/>
    <path id="Контур_1613" data-name="Контур 1613" d="M386.832,695.59a16.92,16.92,0,0,1-4.63,11.587,2.722,2.722,0,0,1-.806.705,16.724,16.724,0,0,1-21.039,1.511,19.211,19.211,0,0,1-2.214-1.813,16.577,16.577,0,0,1-5.033-11.99,16.861,16.861,0,0,1,33.723,0Z" transform="translate(-273.984 -635.603)" fill="#e9f0f8"/>
    <path id="Контур_1614" data-name="Контур 1614" d="M386.832,695.59a16.991,16.991,0,0,1-16.911,16.927,16.89,16.89,0,0,1-16.811-16.826,16.862,16.862,0,0,1,33.723-.1Z" transform="translate(-273.984 -635.603)" fill="#dce2f0"/>
    <path id="Контур_1615" data-name="Контур 1615" d="M382.2,707.177a2.724,2.724,0,0,1-.806.705,16.724,16.724,0,0,1-21.039,1.511,19.225,19.225,0,0,1-2.214-1.813,5.118,5.118,0,0,1,2.315-1.31l.5-.2c1.007-.4,2.417-.907,4.228-1.713a1.809,1.809,0,0,0,.705-.5.527.527,0,0,0,.2-.4,1.867,1.867,0,0,0,.2-.705v-3.426l-.2-.2a2.477,2.477,0,0,1-.5-1.511l-.2-.1c-.906.2-.806-.705-1.007-2.519-.1-.705,0-.907.4-1.008l.3-.4a9.965,9.965,0,0,1-.906-3.729,3.448,3.448,0,0,1,1.711-3.325,4.645,4.645,0,0,1-.6-1.612,23.931,23.931,0,0,0,4.731.4c1.51-.3,3.927.1,4.832,2.116a3.2,3.2,0,0,1,2.215,2.519c.2,1.612-.705,3.325-.906,4.03v.1c.2.1.3.3.2,1.008-.2,1.712-.2,2.719-1.006,2.519l-.806,1.41c0,.2,0,.2-.1.3v3.526a1.4,1.4,0,0,0,.3.907c.1.1.1.2.2.2.2.2.4.4.6.4,2.013.806,3.423,1.411,4.53,1.814A10.519,10.519,0,0,1,382.2,707.177Z" transform="translate(-273.983 -635.602)" fill="#fff"/>
    <path id="Контур_1616" data-name="Контур 1616" d="M382.2,707.173a2.722,2.722,0,0,1-.806.705,16.724,16.724,0,0,1-21.039,1.511,19.2,19.2,0,0,1-2.214-1.813,5.118,5.118,0,0,1,2.315-1.31l.5-.2c1.007-.4,2.417-.907,4.228-1.713a1.808,1.808,0,0,0,.705-.5,5.484,5.484,0,0,0,4.53,2.317,5.621,5.621,0,0,0,4.429-2.217c.2.2.4.4.6.4,2.013.806,3.423,1.411,4.53,1.814A9.51,9.51,0,0,1,382.2,707.173Z" transform="translate(-273.983 -635.598)" fill="#6c6bcc"/>
    <path id="Контур_1617" data-name="Контур 1617" d="M376.058,693.877a1.96,1.96,0,0,0-.3-1.31c0-.1-.1-.1-.1-.2a4.131,4.131,0,0,0-3.624-2.015c-3.725-.2-4.027.5-5.134-.5a2.166,2.166,0,0,1-.2,2.419,2.961,2.961,0,0,1-1.812,1.31c-1.711-3.83-.805-6.247.805-7.054a4.645,4.645,0,0,1-.6-1.612,23.935,23.935,0,0,0,4.732.4c1.51-.3,3.926.1,4.832,2.116a3.194,3.194,0,0,1,2.214,2.519C377.166,691.458,376.259,693.172,376.058,693.877Z" transform="translate(-273.982 -635.602)" fill="#1c3754"/>
    <path id="Контур_1618" data-name="Контур 1618" d="M366.394,702.741v-3.426l-.2-.2v-.2a2.7,2.7,0,0,0,.7.805l2.719,1.914a1.666,1.666,0,0,0,2.113,0l2.516-2.216c.1-.1.2-.1.3-.2v3.527a.9.9,0,0,0,.1.5h-8.255C366.293,703.043,366.394,702.942,366.394,702.741Z" transform="translate(-273.981 -635.599)" fill="url(#linear-gradient-3)"/>
    <path id="Контур_1619" data-name="Контур 1619" d="M386.832,695.59a16.991,16.991,0,0,1-16.911,16.927,16.89,16.89,0,0,1-16.811-16.826,16.862,16.862,0,0,1,33.723-.1Z" transform="translate(-273.984 -635.603)" fill="none" stroke="#fff" stroke-linecap="round" stroke-linejoin="round" stroke-width="1.66"/>
    <path id="Контур_1620" data-name="Контур 1620" d="M274,707.278a5.845,5.845,0,0,0,5.839,5.843h51.743a1.916,1.916,0,0,1,1.309.5l7.247,7.255a.757.757,0,0,0,1.007.2,1,1,0,0,0,.6-.806V686.723a5.845,5.845,0,0,0-5.838-5.843H279.839A5.846,5.846,0,0,0,274,686.723Z" transform="translate(-274 -635.603)" fill="#8c8be5"/>
    <path id="Контур_1621" data-name="Контур 1621" d="M329.063,693.976H284.568a.866.866,0,0,1-.805-.805V690.55a.866.866,0,0,1,.805-.806h44.495a.866.866,0,0,1,.805.806v2.621A.741.741,0,0,1,329.063,693.976Z" transform="translate(-273.998 -635.601)" fill="#fff" opacity="0.7" style="isolation: isolate"/>
    <path id="Контур_1622" data-name="Контур 1622" d="M311.95,704.957H284.568a.866.866,0,0,1-.805-.806v-2.62a.866.866,0,0,1,.805-.806H311.95a.866.866,0,0,1,.805.806v2.62A.741.741,0,0,1,311.95,704.957Z" transform="translate(-273.998 -635.599)" fill="#fff" opacity="0.7" style="isolation: isolate"/>
    <g id="Сгруппировать_1482" data-name="Сгруппировать 1482" transform="translate(43.086 5.679)">
      <path id="Контур_1623" data-name="Контур 1623" d="M317.077,660.635a4.255,4.255,0,0,0,4.228,4.232H334.19a1.291,1.291,0,0,1,1.006.4l5.336,5.34a.665.665,0,0,0,.7.2.68.68,0,0,0,.4-.605V645.522a4.255,4.255,0,0,0-4.228-4.232H321.3a4.255,4.255,0,0,0-4.228,4.232Z" transform="translate(-317.077 -641.29)" fill="#fff"/>
    </g>
    <path id="Контур_1624" data-name="Контур 1624" d="M414.012,667.688a5.2,5.2,0,0,1-5.235,5.239H362.269a1.858,1.858,0,0,0-1.207.5l-6.543,6.549a.966.966,0,0,1-.906.2.756.756,0,0,1-.5-.705V649.249a5.2,5.2,0,0,1,5.234-5.239h50.334a5.2,5.2,0,0,1,5.234,5.239v18.439Z" transform="translate(-273.984 -635.61)" fill="#8c8be5"/>
    <path id="Контур_1625" data-name="Контур 1625" d="M403.641,655.8H363.676a.688.688,0,0,1-.7-.705v-2.419a.688.688,0,0,1,.7-.705h39.965a.688.688,0,0,1,.705.705v2.419A.688.688,0,0,1,403.641,655.8Z" transform="translate(-273.982 -635.609)" fill="#fff" opacity="0.7" style="isolation: isolate"/>
    <path id="Контур_1626" data-name="Контур 1626" d="M388.34,665.669H363.676a.688.688,0,0,1-.7-.705v-2.419a.689.689,0,0,1,.7-.705H388.34a.689.689,0,0,1,.705.705v2.419A.856.856,0,0,1,388.34,665.669Z" transform="translate(-273.982 -635.607)" fill="#fff" opacity="0.7" style="isolation: isolate"/>
    <path id="Контур_1627" data-name="Контур 1627" d="M334.994,650.457a3.44,3.44,0,0,0-5.637-.4,3.44,3.44,0,0,0-5.637.4c-1.007,1.713-.3,3.325,1.006,4.937a16.672,16.672,0,0,0,4.128,3.527.9.9,0,0,0,.5.1.752.752,0,0,0,.5-.1,19.219,19.219,0,0,0,4.128-3.527C335.3,653.782,336.1,652.171,334.994,650.457Z" transform="translate(-273.99 -635.609)" fill="url(#linear-gradient-4)"/>
  </g>
</svg>
