<svg xmlns="http://www.w3.org/2000/svg" width="129.246" height="114.168" viewBox="0 0 129.246 114.168">
  <g id="Сгруппировать_1669" data-name="Сгруппировать 1669" transform="translate(0 0)">
    <g id="Сгруппировать_1663" data-name="Сгруппировать 1663" transform="translate(0)">
      <path id="Контур_1687" data-name="Контур 1687" d="M785.291,695.514a54.643,54.643,0,0,1-14.341,37.1v.271c-12.718,14.894-36.529,23.56-61.694,14.623-9.471-3.791-18.941-11.374-19.752-13.269C655.952,699.3,680.3,640,729.55,640A55.626,55.626,0,0,1,785.291,695.514Z" transform="translate(-674 -640)" fill="#eaeef9"/>
      <path id="Контур_1688" data-name="Контур 1688" d="M769.57,726.238c-18.4,22.207-57.094,26-81.175,1.354Z" transform="translate(-672.891 -633.355)" fill="#e9f0f8"/>
      <path id="Контур_1689" data-name="Контур 1689" d="M769.841,731.635c-12.718,15.164-36.529,23.559-61.693,14.623-9.471-3.791-18.941-11.374-19.752-13.269,2.435-2.708,9.47-4.6,23.811-10.562,4.87-1.9,3.788-7.041,3.788-17.331a12.026,12.026,0,0,1-2.435-5.957l-1.083-.542c-2.977.812-2.705-2.437-3.518-8.665-.27-2.709,0-2.979,1.353-3.521l-.124-.419c-3.788-8.666-4.476-20.04,3.912-24.1a23.43,23.43,0,0,1-1.893-5.687c4.058.542,11.241,1.9,15.57,1.083,6.495-1.354,13.8,1.084,16.506,7.311,12.447,4.875,6.223,16.79,4.87,21.664a1.339,1.339,0,0,0-.271.812.266.266,0,0,0,.271.271c.812.27,2.017.149,1.747,2.315-.541,5.958-.541,9.478-3.518,8.666l-2.705,4.6c0,2.166-.812,12.728,0,15.165a5.515,5.515,0,0,0,3.518,3.791C761.994,728.115,766.865,729.468,769.841,731.635Z" transform="translate(-672.891 -638.751)" fill="#f7d7d7"/>
      <path id="Контур_1690" data-name="Контур 1690" d="M769.841,727.032c-12.718,15.164-36.529,23.56-61.693,14.623-9.471-3.791-18.941-11.374-19.752-13.269,3.788-4.061,23.541-8.936,26.246-12.456a19.27,19.27,0,0,0,30.847,0,4.2,4.2,0,0,0,2.165,1.624C761.994,723.511,766.865,724.865,769.841,727.032Z" transform="translate(-672.891 -634.149)" fill="#6c6bcc"/>
      <path id="Контур_1691" data-name="Контур 1691" d="M747.995,686.522c.278-1.394-.555-3.344-1.11-4.738a.97.97,0,0,0-.278-.557c-2.5-4.738-7.775-6.69-12.775-6.967-13.052-.558-14.162,1.951-18.328-1.952,1.944,2.787,1.388,10.591-6.943,13.1-5.831-13.378-3.055-22.017,2.778-24.8-1.944-4.18-1.944-5.853-1.944-5.853s12.5,2.23,16.662,1.115c5.554-1.115,13.885.279,16.94,7.525C756.882,668.407,749.106,682.342,747.995,686.522Z" transform="translate(-671.586 -638.863)" fill="#1c3754"/>
      <path id="Контур_1693" data-name="Контур 1693" d="M747.626,696.166h-2.705V680.73h2.705a4.164,4.164,0,0,1,4.06,4.063V692.1A3.836,3.836,0,0,1,747.626,696.166Z" transform="translate(-668.536 -636.862)" fill="#2d5887"/>
      <path id="Контур_1694" data-name="Контур 1694" d="M744.478,703c-16.234,0-18.4.812-18.4-1.354a1.239,1.239,0,0,1,1.082-1.355h17.317a3,3,0,0,0,2.977-2.978v-2.167a1.218,1.218,0,1,1,2.435,0v2.167A5.494,5.494,0,0,1,744.478,703Z" transform="translate(-669.987 -635.844)" fill="#1c3754"/>
      <path id="Контур_1695" data-name="Контур 1695" d="M729.423,703.4h-3.247a1.279,1.279,0,0,1-1.353-1.354V700.69a1.278,1.278,0,0,1,1.353-1.354h3.247a1.279,1.279,0,0,1,1.353,1.354v1.354C731.046,702.856,730.234,703.4,729.423,703.4Z" transform="translate(-670.084 -635.428)" fill="#1c3754"/>
      <g id="Сгруппировать_1488" data-name="Сгруппировать 1488" transform="translate(78.375 62.91)">
        <path id="Контур_1696" data-name="Контур 1696" d="M797.039,729.222c0,.542-.27.812-.27,1.354a23.87,23.87,0,0,1-1.353,4.062c0,.271-.271.542-.271.812v.271a25.815,25.815,0,0,1-8.929,9.749c-.542.271-.812.542-1.353.812-.27.27-.542.271-.812.542l-1.623.812a28.593,28.593,0,0,1-5.142,1.625,31.038,31.038,0,0,1-10.011,0,25.7,25.7,0,0,1,10.283-50.369,26.632,26.632,0,0,1,12.988,7.041A25.776,25.776,0,0,1,797.039,729.222Z" transform="translate(-746.768 -698.409)" fill="#d9308a"/>
      </g>
    </g>
    <g id="Сгруппировать_1662" data-name="Сгруппировать 1662" transform="translate(90.323 73.803)">
      <path id="Контур_1728" data-name="Контур 1728" d="M649.036,372.81l-.052.693a14.412,14.412,0,0,1-1.515,4.956,14.064,14.064,0,0,1-7.541,6.819q-.49.194-1.017.361l-.392-1.23a14.38,14.38,0,0,0,2.826-1.236,12.51,12.51,0,0,0,4.948-5.252,14.107,14.107,0,0,0,1.3-3.82h-4.761V372.81Z" transform="translate(-620.502 -370.672)" fill="#dfe3eb"/>
      <path id="Контур_1729" data-name="Контур 1729" d="M643.777,385.3a14.061,14.061,0,0,0,7.54-6.818,14.4,14.4,0,0,0,1.515-4.956l.052-.693h.531l-.052.693a14.4,14.4,0,0,1-1.515,4.956,14.064,14.064,0,0,1-7.54,6.818q-.49.194-1.018.362l-.052-.162Q643.515,385.4,643.777,385.3Z" transform="translate(-624.864 -370.69)" fill="#fff" opacity="0.1"/>
      <path id="Контур_1730" data-name="Контур 1730" d="M412.036,384.409l-.392,1.23q-.528-.169-1.018-.362a14.061,14.061,0,0,1-7.54-6.818,14.389,14.389,0,0,1-1.515-4.956l-.052-.693h6.2V374.1h-4.762a14.118,14.118,0,0,0,1.3,3.82,12.5,12.5,0,0,0,4.948,5.251A14.35,14.35,0,0,0,412.036,384.409Z" transform="translate(-401.5 -370.671)" fill="#dfe3eb"/>
      <path id="Контур_1731" data-name="Контур 1731" d="M410.9,385.3a14.061,14.061,0,0,1-7.54-6.818,14.39,14.39,0,0,1-1.515-4.956l-.052-.693h-.532l.052.693a14.4,14.4,0,0,0,1.515,4.956,14.064,14.064,0,0,0,7.54,6.818q.49.194,1.018.362l.052-.162Q411.162,385.4,410.9,385.3Z" transform="translate(-401.26 -370.69)" fill="#fff" opacity="0.1"/>
      <path id="Контур_1732" data-name="Контур 1732" d="M509.248,573.111v6.962H494.92v-6.962l.456-.608a8.89,8.89,0,0,0,5.771-7.646,7,7,0,0,0,.048-.708h1.772a7,7,0,0,0,.048.708,8.9,8.9,0,0,0,5.772,7.646Z" transform="translate(-487.807 -547.481)" fill="#dfe3eb"/>
      <rect id="Прямоугольник_2016" data-name="Прямоугольник 2016" width="14.328" height="0.873" transform="translate(7.113 25.63)" opacity="0.1"/>
      <path id="Контур_1733" data-name="Контур 1733" d="M496.135,572.5a8.89,8.89,0,0,0,5.772-7.646,7,7,0,0,0,.048-.708H501.2a6.982,6.982,0,0,1-.048.708,8.9,8.9,0,0,1-5.772,7.646l-.456.608v6.962h.759v-6.962Z" transform="translate(-487.807 -547.481)" fill="#fff" opacity="0.1"/>
      <path id="Контур_1734" data-name="Контур 1734" d="M466.26,372.81h1.285V374.1h-1.171Q466.3,373.463,466.26,372.81Z" transform="translate(-461.324 -370.672)" opacity="0.1"/>
      <path id="Контур_1735" data-name="Контур 1735" d="M505.6,510.5l-.392,1.23q-.528-.169-1.018-.362a13.6,13.6,0,0,1-1.418-2.105A14.352,14.352,0,0,0,505.6,510.5Z" transform="translate(-495.061 -496.759)" opacity="0.1"/>
      <path id="Контур_1736" data-name="Контур 1736" d="M638.51,510.506a14.385,14.385,0,0,0,2.826-1.236,13.652,13.652,0,0,1-1.418,2.106q-.49.194-1.017.362Z" transform="translate(-620.493 -496.768)" opacity="0.1"/>
      <path id="Контур_1737" data-name="Контур 1737" d="M696.614,372.81q-.045.653-.114,1.291h-1.17V372.81Z" transform="translate(-672.998 -370.672)" opacity="0.1"/>
      <path id="Контур_1738" data-name="Контур 1738" d="M578.827,564.858a4.908,4.908,0,0,1-1.867,0,6.962,6.962,0,0,0,.048-.708h1.772A7,7,0,0,0,578.827,564.858Z" transform="translate(-563.617 -547.481)" opacity="0.1"/>
      <path id="Контур_1739" data-name="Контур 1739" d="M468.26,344.65c.033,9.573,4.133,17.315,9.189,17.315s9.155-7.742,9.189-17.315Z" transform="translate(-463.172 -344.65)" fill="#fff"/>
      <path id="Контур_1740" data-name="Контур 1740" d="M469.893,344.65H468.26c.033,9.573,4.133,17.315,9.189,17.315a4.951,4.951,0,0,0,.816-.069C473.592,361.115,469.924,353.7,469.893,344.65Z" transform="translate(-463.172 -344.65)" fill="#fff" opacity="0.1"/>
      <path id="Контур_1742" data-name="Контур 1742" d="M0,0H9.746V2.506H0Z" transform="translate(9.404 28.295)" fill="#fff"/>
      <path id="Контур_1741" data-name="Контур 1741" d="M497.546,593.842h9.29V593.5H497.09v2.506h.456Z" transform="translate(-487.686 -565.205)" fill="#fff" opacity="0.1"/>
    </g>
  </g>
</svg>
