<svg xmlns="http://www.w3.org/2000/svg" width="138.345" height="105.845" viewBox="0 0 138.345 105.845">
  <g id="Сгруппировать_1660" data-name="Сгруппировать 1660" transform="translate(0 0)">
    <path id="Контур_1744" data-name="Контур 1744" d="M1003.869,247.245c-7.777.22-17.2,0-23.769-.11-6.573.11-15.993.33-23.77.11,7.668-4.391,10.406-12.626,10.844-18.007h25.851C993.572,234.618,996.2,242.853,1003.869,247.245Z" transform="translate(-908.682 -142.717)" fill="#dfe3eb"/>
    <path id="Контур_1745" data-name="Контур 1745" d="M957.155,246.32h46.115a1.208,1.208,0,0,0,0-2.415H957.155a1.208,1.208,0,0,0,0,2.415Z" transform="translate(-908.74 -140.475)" fill="#ebf0f6"/>
    <path id="Контур_1746" data-name="Контур 1746" d="M1032.348,170.19v67.635a2.831,2.831,0,0,1-2.848,2.855H937.706a2.832,2.832,0,0,1-2.849-2.855V170.19a2.833,2.833,0,0,1,2.849-2.856H1029.5A2.765,2.765,0,0,1,1032.348,170.19Z" transform="translate(-911.964 -152.182)" fill="#f5f8ff"/>
    <path id="Контур_1747" data-name="Контур 1747" d="M1032.348,170.19v58.193H934.857V170.19a2.833,2.833,0,0,1,2.849-2.856H1029.5A2.765,2.765,0,0,1,1032.348,170.19Z" transform="translate(-911.964 -152.182)" fill="#172d45"/>
    <path id="Контур_1748" data-name="Контур 1748" d="M1028.188,170.476h-90.48v54.24h90.48Z" transform="translate(-911.528 -151.7)" fill="#fff"/>
    <path id="Контур_1749" data-name="Контур 1749" d="M942.552,176.189a1.428,1.428,0,1,0-1.424-1.428A1.426,1.426,0,0,0,942.552,176.189Z" transform="translate(-911.006 -151.264)" fill="#fd724f"/>
    <path id="Контур_1750" data-name="Контур 1750" d="M946.543,176.189a1.428,1.428,0,1,0-1.424-1.428A1.426,1.426,0,0,0,946.543,176.189Z" transform="translate(-910.396 -151.264)" fill="#ffcb00"/>
    <path id="Контур_1751" data-name="Контур 1751" d="M950.533,176.189a1.428,1.428,0,1,0-1.424-1.428A1.427,1.427,0,0,0,950.533,176.189Z" transform="translate(-909.786 -151.264)" fill="#7ed171"/>
    <path id="Контур_1752" data-name="Контур 1752" d="M1028.188,178.667h-90.48v44.8h19.5V179.325h70.983Z" transform="translate(-911.528 -150.448)" fill="#e6edf5"/>
    <path id="Контур_1753" data-name="Контур 1753" d="M946.674,187.689a2.416,2.416,0,1,0-2.41-2.416A2.413,2.413,0,0,0,946.674,187.689Z" transform="translate(-910.526 -149.808)" fill="#fff"/>
    <path id="Контур_1754" data-name="Контур 1754" d="M953.885,190.336H940.63a.549.549,0,0,1,0-1.1h13.255a.518.518,0,0,1,.548.549C954.542,190.007,954.214,190.336,953.885,190.336Z" transform="translate(-911.165 -148.832)" fill="#fff"/>
    <path id="Контур_1755" data-name="Контур 1755" d="M953.885,193.289H940.63a.549.549,0,0,1,0-1.1h13.255a.519.519,0,0,1,.548.55C954.542,192.959,954.214,193.289,953.885,193.289Z" transform="translate(-911.165 -148.381)" fill="#fff"/>
    <path id="Контур_1756" data-name="Контур 1756" d="M953.885,196.241H940.63a.549.549,0,0,1,0-1.1h13.255a.518.518,0,0,1,.548.549C954.542,195.912,954.214,196.241,953.885,196.241Z" transform="translate(-911.165 -147.929)" fill="#fff"/>
    <path id="Контур_1757" data-name="Контур 1757" d="M953.885,199.194H940.63a.549.549,0,0,1,0-1.1h13.255a.518.518,0,0,1,.548.549C954.542,198.864,954.214,199.194,953.885,199.194Z" transform="translate(-911.165 -147.478)" fill="#fff"/>
    <path id="Контур_1758" data-name="Контур 1758" d="M953.885,202.146H940.63a.549.549,0,0,1,0-1.1h13.255a.518.518,0,0,1,.548.549C954.542,201.816,954.214,202.146,953.885,202.146Z" transform="translate(-911.165 -147.027)" fill="#fff"/>
    <path id="Контур_1759" data-name="Контур 1759" d="M947.532,205.112h-7.011a.471.471,0,0,1-.438-.439v-.329a.471.471,0,0,1,.438-.439h7.011a.471.471,0,0,1,.438.439v.329C947.86,204.893,947.751,205.112,947.532,205.112Z" transform="translate(-911.165 -146.59)" fill="#fff"/>
    <path id="Контур_1760" data-name="Контур 1760" d="M977.268,228.641a2.415,2.415,0,1,0-2.411-2.415A2.413,2.413,0,0,0,977.268,228.641Z" transform="translate(-905.849 -143.547)" fill="#ced7e2"/>
    <g id="Сгруппировать_1493" data-name="Сгруппировать 1493" transform="translate(109.754 0)">
      <path id="Контур_1761" data-name="Контур 1761" d="M1038.791,168.464a15.712,15.712,0,0,1-.334,3.184v.22a14.528,14.528,0,0,1-8.762,10.1c-.219.109-.323.109-.542.219a12.7,12.7,0,0,1-4.6.769,14.384,14.384,0,0,1,0-28.768A14.228,14.228,0,0,1,1038.791,168.464Z" transform="translate(-1010.2 -154.19)" fill="#8c8be5"/>
    </g>
    <path id="Контур_1762" data-name="Контур 1762" d="M1037.15,170.643v.22a14.528,14.528,0,0,1-8.762,10.1c-.219.11-.323.11-.542.219l-9.1-9.113,1.314-4.611-.1-1.756,2.41-3.844,2.294-1.1,4.715,1.976Z" transform="translate(-899.139 -153.185)" fill="#6c6bcc"/>
    <path id="Контур_1763" data-name="Контур 1763" d="M964.884,200.476h-5.039v12.188h5.039Z" transform="translate(-908.144 -147.114)" fill="#e6edf5"/>
    <path id="Контур_1764" data-name="Контур 1764" d="M975.62,195.619h-5.038v17.788h5.038Z" transform="translate(-906.503 -147.857)" fill="#e6edf5"/>
    <path id="Контур_1765" data-name="Контур 1765" d="M986.357,200.476h-5.039v12.188h5.039Z" transform="translate(-904.862 -147.114)" fill="#e6edf5"/>
    <path id="Контур_1766" data-name="Контур 1766" d="M997.093,188.19h-5.038v26.352h5.038Z" transform="translate(-903.22 -148.992)" fill="#e6edf5"/>
    <path id="Контур_1767" data-name="Контур 1767" d="M1007.828,195.333h-5.038V213.45h5.038Z" transform="translate(-901.579 -147.9)" fill="#e6edf5"/>
    <path id="Контур_1768" data-name="Контур 1768" d="M964.884,208.667h-5.039v2.745h5.039Z" transform="translate(-908.144 -145.862)" fill="#ced7e2"/>
    <path id="Контур_1769" data-name="Контур 1769" d="M975.62,207.619h-5.038v3.953h5.038Z" transform="translate(-906.503 -146.022)" fill="#ced7e2"/>
    <path id="Контур_1770" data-name="Контур 1770" d="M986.357,208.667h-5.039v2.745h5.039Z" transform="translate(-904.862 -145.862)" fill="#ced7e2"/>
    <path id="Контур_1771" data-name="Контур 1771" d="M997.093,205.9h-5.038v5.929h5.038Z" transform="translate(-903.22 -146.284)" fill="#ced7e2"/>
    <path id="Контур_1772" data-name="Контур 1772" d="M1007.828,207.524h-5.038v4.063h5.038Z" transform="translate(-901.579 -146.037)" fill="#ced7e2"/>
    <g id="Сгруппировать_1494" data-name="Сгруппировать 1494" transform="translate(48.359 33.266)">
      <path id="Контур_1773" data-name="Контур 1773" d="M963.246,213.463a17.015,17.015,0,0,1-5.149-.989,1.666,1.666,0,0,1,.986-3.183c2.958.988,6.463,1.756,9.53-1.647l.877-.988c3.943-4.282,6.243-6.808,13.472-2.855,5.806,3.294,7.887,2.086,10.187-1.647a45.452,45.452,0,0,0,2.191-4.721c1.2-3.075,2.411-6.259,5.7-5.82h.219c3.176.33,7.009.769,11.828-5.929a13.361,13.361,0,0,1,1.868-2.2,1.577,1.577,0,0,1,2.294.11,1.594,1.594,0,0,1-.1,2.306,8.975,8.975,0,0,0-1.429,1.757c-5.8,8.124-11.39,7.576-14.786,7.246h-.219c-.767-.109-1.424,1.318-2.3,3.733A31.639,31.639,0,0,1,996,203.91c-3.5,5.82-7.776,6.587-14.568,2.854-4.93-2.745-5.587-1.976-9.42,2.2l-.986,1.1A10.09,10.09,0,0,1,963.246,213.463Z" transform="translate(-956.946 -183.045)" fill="#d9308a"/>
    </g>
    <path id="Контур_1774" data-name="Контур 1774" d="M966.738,186.328h-6.681a.878.878,0,0,1,0-1.757h6.681a.878.878,0,0,1,0,1.757Z" transform="translate(-908.246 -149.546)" fill="#e6edf5"/>
    <path id="Контур_1775" data-name="Контур 1775" d="M972.763,190.043H960.057a.878.878,0,0,1,0-1.757h12.6a.865.865,0,0,1,.876.879A.777.777,0,0,1,972.763,190.043Z" transform="translate(-908.246 -148.978)" fill="#e6edf5"/>
    <g id="Сгруппировать_1495" data-name="Сгруппировать 1495" transform="translate(0 53.471)">
      <path id="Контур_1776" data-name="Контур 1776" d="M947.094,216.711a15.642,15.642,0,0,1-.657,4.611,16.226,16.226,0,0,1-12.049,11.2,17.006,17.006,0,0,1-3.4.329,16.141,16.141,0,1,1,16.1-16.14Z" transform="translate(-915 -200.571)" fill="#8c8be5"/>
    </g>
    <path id="Контур_1777" data-name="Контур 1777" d="M945.187,219.91a16.226,16.226,0,0,1-12.049,11.2l-9.858-9.882,1.314-1.207-1.424-1.427,2.19-1.647,8.544-5.929.986-1.207Z" transform="translate(-913.751 -145.687)" fill="#6c6bcc"/>
    <path id="Контур_1778" data-name="Контур 1778" d="M931.846,214.186h1.533a.518.518,0,0,1,.548.549v5.49a.518.518,0,0,1-.548.549h-1.533a.519.519,0,0,1-.549-.549v-5.49A.519.519,0,0,1,931.846,214.186Z" transform="translate(-912.508 -145.018)" fill="#fff"/>
    <path id="Контур_1779" data-name="Контур 1779" d="M927.855,216.567h1.533a.518.518,0,0,1,.548.549v2.745a.518.518,0,0,1-.548.549h-1.533a.518.518,0,0,1-.548-.549v-2.745A.518.518,0,0,1,927.855,216.567Z" transform="translate(-913.119 -144.654)" fill="#fff"/>
    <path id="Контур_1780" data-name="Контур 1780" d="M923.868,218.471H925.4a.519.519,0,0,1,.548.55v.549a.518.518,0,0,1-.548.549h-1.533a.519.519,0,0,1-.549-.549v-.549C923.209,218.691,923.539,218.471,923.868,218.471Z" transform="translate(-913.731 -144.363)" fill="#fff"/>
    <path id="Контур_1781" data-name="Контур 1781" d="M934.723,209.534a.472.472,0,0,1,.438.439v2.855a.237.237,0,0,1-.219.22h-.876a.237.237,0,0,1-.219-.22v-1.1a34.365,34.365,0,0,1-10.3,6.808h-.219l-.109-.111v-.988a.236.236,0,0,1,.219-.219,31.221,31.221,0,0,0,9.53-6.478h-1.2a.237.237,0,0,1-.219-.22v-.878a.235.235,0,0,1,.219-.219Z" transform="translate(-913.743 -145.746)" fill="#fff"/>
    <path id="Контур_1782" data-name="Контур 1782" d="M1028.881,167.832h-5.038a.472.472,0,0,1-.438-.439v-5.051a.817.817,0,0,0-.657-.769h-.1a6.211,6.211,0,0,0,1.752,12.3,6.066,6.066,0,0,0,5.257-5.27.83.83,0,0,0-.772-.769Z" transform="translate(-899.356 -153.061)" fill="#f5f8ff"/>
    <path id="Контур_1783" data-name="Контур 1783" d="M1023.74,161.173v4.941a.519.519,0,0,0,.553.549h4.923a.519.519,0,0,0,.553-.549,6.083,6.083,0,0,0-5.476-5.49c-.334-.11-.553.11-.553.549Z" transform="translate(-898.376 -153.211)" fill="#fff"/>
    <path id="Контур_1784" data-name="Контур 1784" d="M929.727,244.762h111.948" transform="translate(-912.749 -140.344)" fill="none" stroke="#ebf0f6" stroke-linecap="round" stroke-linejoin="round" stroke-width="2"/>
  </g>
</svg>
